<svg height="512" viewBox="0 0 512 512" width="512" xmlns="http://www.w3.org/2000/svg"><path d="m16 32h288v208h-288z" fill="#acabb1"/><path d="m208 272h288v208h-288z" fill="#acabb1"/><path d="m448 192h-24v-72h-88v32h56v40h-24l40 48z" fill="#cca400"/><path d="m64 320h24v72h88v-32h-56v-40h24l-40-48z" fill="#aa6100"/><path d="m160 160-144-128h288z" fill="#d1e7f8"/><path d="m352 400-144-128h288z" fill="#d1e7f8"/><path d="m312 240v-208a8 8 0 0 0 -8-8h-288a8 8 0 0 0 -8 8v208a8 8 0 0 0 8 8h288a8 8 0 0 0 8-8zm-211.322-122.027-76.678 57.953v-126.111zm-63.637-77.973h245.917l-122.958 109.3zm258.959 9.815v126.21l-77.1-57.673zm-272 182.185v-36.019l88.873-67.169 41.813 37.167a8 8 0 0 0 10.628 0l41.375-36.779 89.311 66.807v35.993z"/><path d="m248 208h-64a8 8 0 0 0 0 16h64a8 8 0 0 0 0-16z"/><path d="m280 208h-8a8 8 0 0 0 0 16h8a8 8 0 0 0 0-16z"/><path d="m496 264h-288a8 8 0 0 0 -8 8v208a8 8 0 0 0 8 8h288a8 8 0 0 0 8-8v-208a8 8 0 0 0 -8-8zm-203.322 93.973-76.678 57.953v-126.111zm-63.636-77.973h245.916l-122.958 109.3zm258.958 9.815v126.21l-77.1-57.673zm-272 182.185v-36.019l88.873-67.169 41.813 37.167a8 8 0 0 0 10.628 0l41.375-36.779 89.311 66.807v35.993z"/><path d="m440 448h-64a8 8 0 0 0 0 16h64a8 8 0 0 0 0-16z"/><path d="m472 448h-8a8 8 0 0 0 0 16h8a8 8 0 0 0 0-16z"/><path d="m336 160h48v24h-16a8 8 0 0 0 -6.146 13.122l40 48a8 8 0 0 0 12.292 0l40-48a8 8 0 0 0 -6.146-13.122h-16v-64a8 8 0 0 0 -8-8h-88a8 8 0 0 0 -8 8v32a8 8 0 0 0 8 8zm8-32h72v64a8 8 0 0 0 8 8h6.92l-22.92 27.5-22.92-27.5h6.92a8 8 0 0 0 8-8v-40a8 8 0 0 0 -8-8h-48z"/><path d="m176 352h-48v-24h16a8 8 0 0 0 6.146-13.122l-40-48a8 8 0 0 0 -12.292 0l-40 48a8 8 0 0 0 6.146 13.122h16v64a8 8 0 0 0 8 8h88a8 8 0 0 0 8-8v-32a8 8 0 0 0 -8-8zm-8 32h-72v-64a8 8 0 0 0 -8-8h-6.92l22.92-27.5 22.92 27.5h-6.92a8 8 0 0 0 -8 8v40a8 8 0 0 0 8 8h48z"/></svg>