<svg id="svg" xmlns="http://www.w3.org/2000/svg" xmlns:xlink="http://www.w3.org/1999/xlink" width="400" height="307.0100143061516" viewBox="0, 0, 400,307.0100143061516"><g id="svgg"><path id="path0" d="M155.100 0.454 C 138.374 2.889,127.013 10.230,102.438 34.483 C 80.664 55.973,70.262 62.974,55.470 66.091 C 34.253 70.563,11.741 59.990,1.714 40.844 C 1.248 39.954,0.816 39.485,0.462 39.485 C -1.509 39.485,4.069 53.794,8.826 60.944 C 21.680 80.262,40.494 90.023,66.018 90.619 C 72.889 90.779,72.951 90.786,72.814 91.384 C 69.119 107.498,71.754 137.814,78.674 158.798 C 89.007 190.131,102.186 207.290,141.631 240.774 C 173.371 267.717,184.864 280.542,197.093 302.661 C 200.082 308.067,200.075 308.065,202.233 304.006 C 213.958 281.957,226.285 268.148,259.178 240.210 C 295.915 209.007,308.702 192.922,319.462 164.378 C 327.802 142.255,331.182 110.329,327.188 91.416 C 327.071 90.860,327.231 90.843,332.847 90.793 C 366.285 90.498,392.609 71.181,399.738 41.708 C 400.340 39.219,399.380 38.638,398.310 40.844 C 388.890 60.267,364.651 71.139,342.713 65.782 C 328.217 62.242,318.577 55.481,295.422 32.616 C 278.992 16.392,272.294 11.063,261.946 5.987 C 242.427 -3.587,219.972 -1.559,202.873 11.321 L 200.025 13.466 198.224 12.014 C 186.560 2.610,170.277 -1.755,155.100 0.454 M200.683 60.792 C 201.549 62.114,206.999 66.712,210.413 69.001 C 218.190 74.215,226.670 77.201,237.807 78.647 C 240.067 78.941,241.724 79.253,241.488 79.342 C 240.435 79.737,203.902 83.300,200.858 83.304 C 198.091 83.308,170.492 80.670,159.084 79.311 L 157.225 79.090 159.227 78.876 C 176.189 77.069,188.282 71.819,197.846 62.111 C 200.108 59.815,200.058 59.838,200.683 60.792 " stroke="none" fill="#000000" fill-rule="evenodd"></path></g></svg>