<svg id="svg" xmlns="http://www.w3.org/2000/svg" xmlns:xlink="http://www.w3.org/1999/xlink" width="400" height="376.875" viewBox="0, 0, 400,376.875"><g id="svgg"><path id="path0" d="M99.121 87.717 C 44.662 135.946,0.104 175.537,0.104 175.698 C 0.104 175.952,19.882 198.463,20.705 199.147 C 20.964 199.362,35.428 186.692,110.313 120.656 L 199.613 41.909 236.104 74.236 C 386.627 207.578,377.341 199.395,377.729 199.044 C 378.057 198.747,378.137 198.748,378.601 199.052 L 379.112 199.387 389.504 187.697 C 395.219 181.268,399.922 175.896,399.954 175.759 C 399.986 175.622,355.271 136.049,300.587 87.819 L 201.162 0.128 199.650 0.079 L 198.138 0.029 99.121 87.717 M129.086 129.654 L 59.170 191.563 59.223 280.938 C 59.270 360.162,59.312 370.407,59.592 371.146 C 60.486 373.508,62.026 375.230,64.121 376.212 L 65.313 376.771 110.573 376.825 L 155.833 376.879 155.836 337.450 C 155.837 304.115,155.883 297.871,156.132 297.053 C 157.079 293.931,159.570 291.780,162.862 291.241 C 164.578 290.960,234.485 290.979,236.250 291.261 C 239.358 291.758,241.893 293.974,242.810 296.997 C 243.080 297.889,243.121 303.107,243.123 337.448 L 243.125 376.875 289.361 376.875 C 321.523 376.875,335.776 376.808,336.184 376.653 C 337.630 376.107,338.711 374.370,339.912 370.665 L 340.625 368.465 340.625 280.014 L 340.625 191.563 270.489 129.708 C 210.938 77.188,200.252 67.846,199.678 67.800 C 199.049 67.750,194.113 72.075,129.086 129.654 " stroke="none" fill="#000000" fill-rule="evenodd"></path></g></svg>