<svg id="svg" xmlns="http://www.w3.org/2000/svg" xmlns:xlink="http://www.w3.org/1999/xlink" width="400" height="347.4065138721351" viewBox="0, 0, 400,347.4065138721351"><g id="svgg"><path id="path0" d="M202.814 19.016 C 202.593 19.260,202.204 20.428,201.951 21.612 C 200.995 26.079,199.857 29.623,199.116 30.442 C 198.721 30.879,197.659 30.627,197.945 30.165 C 198.122 29.878,197.660 26.697,197.217 25.159 C 196.218 21.686,194.330 22.118,193.827 25.935 C 193.613 27.559,193.206 28.484,191.909 30.303 C 190.053 32.904,189.624 34.065,189.654 36.418 C 189.692 39.530,189.079 39.821,185.077 38.590 C 182.727 37.867,181.317 37.950,180.267 38.872 C 179.169 39.836,178.074 40.290,176.847 40.290 C 175.183 40.290,175.892 39.423,178.046 38.822 C 178.643 38.656,179.422 38.254,179.777 37.930 C 180.804 36.989,182.150 36.968,184.684 37.851 C 187.974 38.999,188.902 38.842,188.902 37.137 C 188.902 35.258,187.838 34.666,183.715 34.250 C 179.683 33.843,178.847 33.608,177.974 32.637 C 174.714 29.014,170.949 30.933,172.618 35.367 C 173.342 37.291,173.349 37.383,172.759 37.229 C 172.169 37.074,171.882 37.613,171.645 39.324 C 171.544 40.054,171.414 40.489,171.357 40.290 C 171.299 40.090,171.202 39.770,171.140 39.578 C 171.060 39.330,170.757 39.524,170.101 40.241 C 168.903 41.552,167.581 41.704,167.352 40.557 C 167.275 40.174,166.944 39.550,166.617 39.170 L 166.023 38.480 162.985 38.548 C 159.661 38.622,159.374 38.546,157.990 37.225 C 156.271 35.582,155.463 36.823,156.151 40.048 L 156.332 40.893 155.783 39.930 C 154.276 37.285,153.928 39.795,155.387 42.787 C 156.316 44.693,156.899 45.275,158.543 45.937 C 161.062 46.952,159.669 47.564,155.980 47.063 C 151.663 46.477,151.821 46.478,150.927 47.031 C 150.467 47.315,149.531 48.303,148.846 49.226 C 147.907 50.493,147.460 50.905,147.022 50.905 C 146.274 50.905,146.290 50.779,147.164 49.784 C 148.277 48.516,148.924 47.084,148.781 46.204 C 148.687 45.628,148.830 45.186,149.366 44.387 C 150.822 42.219,150.593 41.362,148.569 41.400 L 147.262 41.425 146.989 39.990 C 146.668 38.301,145.852 37.030,144.198 35.645 L 143.002 34.644 142.440 35.296 C 141.542 36.341,141.488 37.322,142.217 39.350 C 143.278 42.300,143.293 42.067,142.060 41.883 C 141.177 41.750,140.789 41.827,139.912 42.307 C 138.212 43.238,137.649 43.354,137.998 42.702 C 138.153 42.411,138.596 41.994,138.982 41.774 C 139.626 41.408,139.683 41.264,139.685 40.010 C 139.686 38.830,139.868 38.291,141.025 36.033 C 142.491 33.174,142.548 32.625,141.473 31.665 C 140.672 30.948,140.385 30.990,139.807 31.904 C 138.074 34.649,134.578 35.436,133.045 33.427 C 132.385 32.561,131.770 32.408,126.659 31.834 C 123.438 31.473,122.799 31.242,122.798 30.440 C 122.794 28.158,119.297 26.566,117.647 28.095 C 116.140 29.491,116.790 31.904,119.399 34.598 C 122.047 37.333,122.285 37.934,121.331 39.477 C 120.404 40.977,118.693 40.542,115.954 38.111 C 112.363 34.924,110.512 37.764,113.848 41.342 C 114.594 42.142,114.639 42.250,114.167 42.108 C 113.760 41.985,113.504 42.081,113.181 42.481 C 112.636 43.153,112.285 42.955,112.079 41.860 C 111.845 40.613,111.567 40.821,111.127 42.571 C 110.552 44.858,110.567 44.904,112.107 45.718 C 114.610 47.040,114.320 47.841,110.872 49.140 L 109.070 49.819 109.210 51.176 C 109.365 52.676,109.008 54.547,108.259 56.162 C 107.527 57.739,107.238 57.336,107.238 54.741 L 107.238 52.473 106.574 52.397 C 105.950 52.325,105.911 52.376,105.911 53.272 C 105.911 54.539,105.413 54.968,104.577 54.421 C 103.869 53.956,103.980 53.650,105.035 53.161 L 105.790 52.811 104.741 52.924 C 101.967 53.222,101.838 55.107,104.119 61.972 C 104.180 62.154,103.554 61.677,102.729 60.913 C 100.369 58.729,98.616 58.296,96.887 59.469 C 96.398 59.801,95.867 60.073,95.707 60.075 C 94.925 60.081,92.868 61.581,92.291 62.565 C 91.008 64.755,91.891 67.327,94.047 67.683 C 96.477 68.084,97.329 68.912,99.038 72.535 L 100.328 75.271 101.398 75.271 C 103.272 75.271,104.463 76.722,104.463 79.003 C 104.463 80.443,104.052 80.408,103.857 78.951 C 103.634 77.288,103.630 77.283,102.563 77.140 C 100.957 76.924,99.835 76.215,98.673 74.683 C 96.445 71.742,94.755 70.271,94.983 71.472 C 95.053 71.838,94.656 72.683,93.764 74.065 C 91.523 77.541,91.516 78.207,93.693 81.386 C 95.309 83.746,95.308 83.746,92.310 82.415 C 90.554 81.635,90.391 81.634,89.977 82.409 C 89.223 83.818,87.360 84.075,85.042 83.088 C 82.245 81.897,81.743 82.253,84.303 83.612 C 86.501 84.778,86.613 85.685,84.510 85.290 C 83.016 85.010,81.936 83.683,81.577 81.688 C 80.937 78.134,79.348 77.336,78.021 79.903 C 77.617 80.684,77.577 82.823,77.953 83.527 C 78.190 83.969,78.168 84.007,77.772 83.843 C 74.366 82.433,72.971 85.321,75.635 88.269 C 76.448 89.169,76.498 89.318,76.430 90.619 L 76.357 92.009 75.438 90.517 C 74.037 88.242,73.092 87.998,72.231 89.691 C 71.979 90.186,71.754 90.629,71.730 90.675 C 71.706 90.721,71.207 90.428,70.621 90.025 C 68.063 88.265,66.852 89.532,67.604 93.184 C 67.918 94.715,67.898 94.775,65.985 98.070 C 65.487 98.928,65.143 99.845,65.142 100.322 L 65.139 101.126 64.234 100.417 C 61.587 98.342,58.799 98.838,57.451 101.623 C 56.432 103.727,56.894 104.839,59.553 106.677 C 61.324 107.901,62.002 108.829,62.002 110.027 C 62.002 110.310,62.205 110.829,62.453 111.181 C 63.880 113.212,63.682 113.482,62.039 111.747 C 61.120 110.777,60.309 109.688,60.237 109.327 C 59.953 107.909,57.057 105.386,56.123 105.745 C 55.565 105.959,55.618 107.399,56.227 108.594 C 57.388 110.870,57.871 113.800,57.217 114.607 L 56.774 115.154 55.810 114.612 C 54.961 114.135,54.781 113.870,54.309 112.403 C 53.352 109.432,52.939 111.131,53.679 114.997 C 53.878 116.037,54.041 116.915,54.041 116.948 C 54.041 116.981,53.386 117.008,52.586 117.008 C 50.572 117.008,50.477 116.409,52.157 114.298 C 53.663 112.407,51.285 113.507,48.929 115.792 L 47.053 117.612 46.901 116.888 C 46.131 113.215,41.054 117.001,40.525 121.644 C 40.145 124.979,39.472 124.807,37.655 120.914 C 37.001 119.513,36.858 119.426,36.496 120.205 C 36.358 120.504,35.593 121.483,34.796 122.381 C 32.086 125.438,32.199 127.042,35.263 128.976 C 36.552 129.789,36.335 129.903,34.619 129.312 C 31.266 128.158,30.216 127.107,30.680 125.368 C 31.386 122.729,28.812 121.131,25.513 122.161 C 24.933 122.342,24.849 122.304,24.849 121.860 C 24.849 120.365,24.027 121.845,23.615 124.083 C 22.998 127.434,23.671 128.349,26.710 128.287 C 31.115 128.197,34.258 130.810,34.258 134.561 C 34.258 136.172,34.057 136.476,33.272 136.056 C 32.517 135.652,32.229 136.079,32.078 137.829 C 31.950 139.316,31.947 139.320,31.693 138.480 C 31.517 137.900,31.512 137.135,31.677 136.034 C 32.010 133.813,31.914 133.656,30.225 133.652 C 28.892 133.649,28.805 133.611,28.273 132.790 C 26.854 130.599,23.430 130.446,21.583 132.490 C 20.494 133.696,20.502 133.763,22.190 137.523 C 23.800 141.108,24.339 141.797,26.394 142.893 C 27.762 143.623,29.192 145.147,29.192 145.875 C 29.192 146.500,28.629 146.191,27.407 144.894 C 26.305 143.724,24.569 142.581,23.894 142.581 C 23.216 142.581,23.862 143.516,26.116 145.798 C 28.707 148.421,30.045 150.302,29.319 150.302 C 28.910 150.302,26.420 147.943,25.752 146.924 L 25.357 146.321 25.348 147.045 C 25.323 149.015,26.797 152.936,27.715 153.342 C 27.930 153.437,28.649 153.531,29.312 153.551 C 30.280 153.581,30.853 153.796,32.207 154.640 C 35.906 156.944,36.755 157.305,39.085 157.565 C 42.932 157.994,45.025 159.131,47.145 161.943 L 47.828 162.849 46.793 163.768 C 44.523 165.782,46.901 168.473,51.132 168.679 C 51.611 168.702,51.297 168.782,50.422 168.859 L 48.854 168.999 48.854 170.929 L 48.854 172.859 47.833 173.651 C 46.717 174.517,46.321 175.094,46.321 175.859 C 46.321 177.099,48.928 176.014,50.198 174.246 C 50.993 173.140,53.755 170.924,54.015 171.184 C 54.095 171.264,53.381 172.069,52.428 172.972 C 50.293 174.997,50.186 175.396,50.745 179.252 C 51.557 184.844,51.582 184.791,46.080 188.916 C 43.758 190.657,41.448 192.247,40.947 192.450 C 38.386 193.489,37.153 197.126,38.321 200.199 L 38.765 201.368 38.209 202.015 C 37.189 203.200,36.192 207.922,36.190 211.580 C 36.188 213.855,37.035 215.800,38.877 217.747 C 39.909 218.838,40.007 219.009,39.427 218.706 C 38.157 218.044,37.458 218.319,37.724 219.377 C 37.902 220.087,39.074 220.748,40.154 220.748 C 40.959 220.748,42.219 221.317,42.220 221.680 C 42.220 221.765,41.435 221.834,40.476 221.834 C 38.368 221.834,38.155 222.168,39.378 223.566 C 40.029 224.310,40.196 224.719,40.245 225.694 C 40.330 227.383,41.287 229.202,43.102 231.127 L 44.644 232.761 43.927 233.479 C 42.385 235.020,42.630 236.217,44.951 238.480 L 46.683 240.169 45.778 240.244 C 44.776 240.327,44.712 240.434,45.225 241.167 C 46.741 243.331,52.160 243.422,52.695 241.292 C 53.044 239.900,53.210 239.944,54.709 241.819 C 55.727 243.092,55.919 243.461,55.622 243.575 C 54.788 243.895,55.808 245.166,58.136 246.707 C 58.675 247.064,59.071 247.403,59.014 247.459 C 58.958 247.516,58.331 247.181,57.622 246.714 C 55.300 245.187,54.091 245.356,55.790 246.971 C 57.797 248.878,59.888 249.164,62.635 247.906 C 63.381 247.565,64.039 247.286,64.098 247.286 C 64.156 247.286,63.763 247.915,63.224 248.684 C 61.315 251.405,62.055 252.513,64.344 250.362 L 65.692 249.095 65.036 250.143 C 64.308 251.308,64.345 251.518,65.244 251.292 C 66.071 251.084,66.624 249.921,66.772 248.074 C 66.916 246.285,67.202 245.930,67.427 247.263 C 67.543 247.952,67.419 248.736,66.966 250.171 C 65.892 253.570,66.259 253.939,68.356 251.568 C 69.476 250.301,69.716 250.130,69.858 250.498 C 70.055 251.007,69.065 252.139,67.250 253.478 C 65.900 254.474,65.823 254.755,66.888 254.793 C 67.351 254.809,67.475 254.862,67.189 254.923 C 66.924 254.979,66.463 255.077,66.164 255.141 C 65.866 255.204,65.621 255.427,65.621 255.636 C 65.621 255.962,65.976 256.003,68.138 255.933 C 71.342 255.828,72.014 255.442,72.014 253.705 C 72.014 252.747,72.059 252.643,72.316 252.996 C 73.072 254.033,72.564 256.132,71.371 256.896 C 70.783 257.272,70.687 257.412,71.015 257.415 C 71.261 257.417,71.804 257.131,72.221 256.778 C 75.418 254.081,78.801 254.043,79.340 256.698 C 79.590 257.933,80.322 257.911,84.000 256.558 C 85.706 255.931,87.181 255.496,87.277 255.593 C 87.724 256.039,85.653 257.376,83.333 258.139 C 80.635 259.027,79.522 259.621,78.966 260.469 C 78.451 261.256,78.640 261.359,79.748 260.896 C 83.062 259.511,85.420 261.056,83.694 263.480 C 83.350 263.963,83.234 264.386,83.334 264.787 C 83.529 265.563,83.862 265.538,84.288 264.717 C 84.794 263.740,86.599 261.761,86.984 261.761 C 87.437 261.761,87.721 262.376,87.932 263.812 L 88.108 265.018 88.655 263.512 C 89.476 261.252,89.635 261.131,90.629 262.003 C 91.614 262.868,92.400 262.961,92.400 262.212 C 92.400 261.291,93.372 260.093,95.413 258.500 C 97.645 256.757,97.825 256.678,97.610 257.536 C 97.450 258.172,98.129 259.107,98.752 259.107 C 98.928 259.107,100.250 259.226,101.690 259.371 L 104.309 259.634 105.363 260.806 C 107.332 262.997,109.555 263.609,113.655 263.091 C 114.786 262.949,115.175 263.007,116.038 263.447 C 118.222 264.561,120.638 264.301,124.046 262.585 C 127.050 261.072,127.426 259.044,125.328 255.659 C 124.391 254.147,124.141 253.513,124.050 252.417 L 123.938 251.055 124.899 252.065 C 127.000 254.274,131.120 252.536,131.121 249.441 L 131.122 248.339 132.087 248.526 C 132.618 248.628,133.951 248.717,135.050 248.723 C 137.440 248.735,137.760 249.054,136.593 250.257 C 135.881 250.992,135.855 251.089,136.003 252.473 L 136.157 253.920 136.477 252.361 C 136.830 250.647,137.052 250.285,137.619 250.503 C 138.078 250.679,138.123 252.000,137.715 253.360 C 137.477 254.155,137.492 254.363,137.812 254.683 C 138.378 255.249,138.661 254.549,139.324 250.942 C 139.891 247.855,140.558 245.606,140.302 247.645 C 139.794 251.683,139.625 254.559,139.882 254.815 C 140.498 255.431,141.598 251.456,141.612 248.567 C 141.618 247.210,141.788 247.167,143.577 248.074 C 145.006 248.799,145.263 248.850,147.226 248.793 C 149.847 248.717,149.910 248.914,148.088 251.524 C 146.679 253.541,146.697 253.932,148.154 252.968 C 150.848 251.185,152.206 249.098,152.243 246.683 C 152.279 244.382,152.500 244.103,153.260 245.400 C 153.879 246.457,155.643 248.251,156.063 248.251 C 156.179 248.251,156.408 248.572,156.570 248.965 C 157.024 250.062,158.888 251.650,161.188 252.901 C 165.802 255.412,166.817 257.186,167.567 264.053 C 167.900 267.104,173.730 277.469,178.138 282.847 C 179.413 284.403,185.142 293.777,187.536 298.225 C 188.153 299.372,189.160 300.978,189.774 301.795 C 192.083 304.867,192.714 311.487,192.214 327.396 C 191.897 337.489,191.402 339.855,189.451 340.604 C 188.422 340.998,180.251 343.008,178.890 343.201 C 177.543 343.392,168.150 346.410,167.050 347.005 C 166.404 347.355,169.471 347.388,203.559 347.397 C 243.460 347.407,242.205 347.446,239.988 346.285 C 237.757 345.116,225.849 342.013,221.230 341.396 C 215.516 340.633,208.465 338.709,208.433 337.904 C 208.427 337.757,208.323 334.976,208.201 331.725 C 208.080 328.474,207.875 325.380,207.745 324.849 C 207.512 323.890,206.977 314.259,206.963 310.758 C 206.952 307.951,207.762 305.763,210.505 301.199 C 212.800 297.380,219.670 283.754,220.394 281.586 C 220.601 280.966,221.191 279.644,221.704 278.649 C 223.465 275.236,224.765 270.740,225.463 265.656 C 226.138 260.731,226.575 260.075,230.469 258.153 C 233.820 256.498,239.196 252.770,241.671 250.385 C 245.910 246.301,248.388 246.003,253.023 249.020 C 254.813 250.185,254.983 250.112,254.446 248.408 C 253.641 245.853,254.185 245.596,255.409 247.952 C 255.878 248.856,256.232 249.966,256.326 250.828 C 256.557 252.945,256.647 253.237,257.300 253.969 C 258.142 254.913,258.625 254.295,258.625 252.274 L 258.625 250.840 259.125 251.475 C 259.953 252.527,260.796 252.065,260.796 250.559 C 260.796 250.218,260.905 249.940,261.037 249.940 C 261.170 249.940,261.279 250.095,261.279 250.284 C 261.279 251.557,264.000 252.912,264.849 252.063 C 265.249 251.663,265.212 250.099,264.777 249.058 C 263.883 246.918,265.369 247.725,267.068 250.302 C 269.078 253.350,269.796 253.373,274.186 250.529 C 274.891 250.072,274.887 250.087,274.006 251.127 C 272.838 252.508,272.955 252.560,274.819 251.488 C 279.655 248.709,280.092 248.248,277.818 248.321 C 275.910 248.383,275.314 247.995,276.203 247.269 C 276.950 246.658,278.001 246.679,279.156 247.329 C 280.219 247.926,280.539 247.799,280.146 246.936 C 278.994 244.408,274.707 244.311,274.372 246.805 L 274.227 247.887 273.803 246.682 C 272.374 242.621,274.655 239.654,278.235 240.917 C 279.470 241.353,280.924 241.349,281.289 240.909 C 281.669 240.451,284.680 243.289,284.680 244.105 C 284.680 244.620,284.751 244.632,287.877 244.633 C 293.143 244.636,294.184 245.206,294.568 248.302 C 294.843 250.520,295.354 251.870,295.917 251.870 C 296.511 251.870,296.287 248.518,295.600 247.109 C 295.135 246.155,295.131 246.104,295.548 246.327 C 296.697 246.942,297.326 248.792,297.712 252.690 C 298.092 256.522,298.214 256.729,300.468 257.399 C 302.322 257.949,302.843 257.925,302.404 257.311 C 299.275 252.930,298.454 250.635,298.437 246.220 C 298.430 244.532,298.577 244.853,299.661 248.886 C 300.965 253.734,301.641 254.259,302.297 250.933 C 303.236 246.174,303.698 246.485,303.722 251.894 C 303.738 255.398,303.778 255.715,304.290 256.478 C 305.368 258.084,306.470 257.703,307.991 255.199 C 309.147 253.296,309.305 253.372,309.585 255.971 C 309.662 256.681,310.494 256.915,310.958 256.356 C 311.407 255.815,311.063 255.068,309.704 253.632 C 309.039 252.928,308.624 252.352,308.783 252.352 C 309.144 252.352,310.418 253.005,311.234 253.608 C 311.574 253.860,312.944 254.428,314.279 254.872 C 318.100 256.141,318.697 256.786,318.697 259.641 C 318.697 262.829,319.434 262.650,320.387 259.228 C 321.066 256.794,321.760 255.304,322.367 254.979 C 323.003 254.638,323.177 254.874,322.838 255.619 C 322.354 256.680,322.542 258.142,323.160 258.142 C 323.574 258.142,323.684 257.800,323.891 255.874 C 324.114 253.788,324.432 254.096,324.727 256.684 C 325.186 260.703,326.282 260.704,328.144 256.687 C 329.032 254.770,329.059 254.752,329.631 255.722 C 331.323 258.587,333.035 258.660,331.742 255.813 L 331.287 254.811 332.800 255.519 C 335.179 256.632,337.756 256.700,337.756 255.649 C 337.756 255.481,337.239 254.752,336.608 254.029 C 334.404 251.506,334.382 251.321,336.488 253.027 C 339.756 255.672,340.918 254.176,338.022 251.054 L 337.153 250.117 337.998 250.276 C 338.462 250.363,339.420 250.818,340.126 251.287 C 341.909 252.471,342.032 252.273,340.906 250.024 C 339.838 247.890,339.710 247.795,337.153 247.241 L 335.706 246.927 336.912 246.848 C 338.662 246.734,340.135 247.010,340.680 247.556 C 341.255 248.131,346.371 248.698,347.108 248.268 C 347.479 248.053,347.463 248.023,346.975 248.017 C 345.690 248.000,344.246 246.909,342.978 244.998 C 342.057 243.611,342.189 243.493,343.435 244.590 C 345.198 246.142,348.162 246.520,349.239 245.331 C 349.999 244.490,349.217 244.045,346.804 243.944 C 345.387 243.885,344.682 243.751,344.475 243.503 C 344.215 243.189,344.596 243.167,347.602 243.320 C 351.499 243.518,351.931 243.289,350.000 242.052 C 349.436 241.691,348.929 241.364,348.874 241.325 C 348.250 240.888,349.516 241.151,351.355 241.839 C 355.706 243.469,356.796 243.202,359.109 239.938 C 361.421 236.675,361.796 234.859,360.437 233.500 L 359.716 232.779 361.378 231.024 C 363.720 228.549,365.007 225.207,363.776 224.797 C 363.623 224.746,364.007 224.133,364.633 223.428 C 366.303 221.547,365.774 221.075,362.847 221.834 C 360.699 222.390,360.758 222.207,363.616 219.468 C 367.588 215.660,368.304 214.113,368.098 209.788 C 367.985 207.405,367.843 206.846,366.355 202.900 C 365.959 201.850,365.965 201.747,366.568 199.262 C 367.752 194.385,367.621 194.215,361.098 192.171 C 358.180 191.256,357.636 191.002,359.107 191.241 C 359.914 191.372,359.952 191.346,359.952 190.660 C 359.952 189.702,359.518 189.362,356.815 188.206 C 353.040 186.590,352.324 184.788,353.340 179.460 C 354.057 175.698,353.840 174.758,351.766 172.619 C 350.792 171.614,350.061 170.727,350.142 170.646 C 350.364 170.424,351.871 171.656,352.765 172.790 C 354.347 174.796,356.544 176.598,357.409 176.598 C 358.041 176.598,356.967 174.540,355.570 173.073 L 354.854 172.321 355.594 171.156 C 356.861 169.158,356.577 168.695,354.077 168.687 C 353.699 168.686,353.270 168.566,353.124 168.420 C 352.931 168.227,353.236 168.154,354.242 168.154 C 357.615 168.154,358.951 165.971,357.423 162.953 L 356.825 161.771 357.725 160.842 C 359.464 159.045,364.170 157.129,367.230 156.971 C 369.006 156.880,369.974 156.437,371.510 155.012 C 373.155 153.485,374.044 153.100,375.821 153.146 C 377.286 153.184,377.352 153.159,377.814 152.407 C 378.809 150.784,379.853 147.273,379.565 146.521 C 379.266 145.741,378.846 146.076,376.840 148.693 C 375.792 150.060,375.218 150.374,375.786 149.270 C 376.679 147.532,378.078 145.749,379.587 144.424 C 381.174 143.030,381.482 142.581,380.851 142.581 C 380.478 142.581,377.007 144.781,376.176 145.544 C 375.878 145.819,375.633 145.916,375.633 145.760 C 375.633 145.286,377.315 143.583,379.303 142.045 C 384.081 138.348,385.609 133.127,382.393 131.486 C 381.377 130.968,380.100 130.846,379.855 131.244 C 379.562 131.716,376.841 133.425,376.166 133.561 C 375.320 133.730,374.218 132.881,373.343 131.387 C 372.816 130.489,372.561 130.315,371.056 129.830 C 369.169 129.223,369.093 129.097,369.983 128.039 C 370.866 126.990,372.497 123.594,372.497 122.804 C 372.497 119.923,366.270 118.769,365.589 121.524 C 365.433 122.158,364.395 124.005,364.196 124.005 C 364.145 124.005,364.198 123.598,364.314 123.100 C 364.832 120.870,364.469 119.111,363.394 118.639 C 363.027 118.478,362.628 118.186,362.507 117.992 C 360.697 115.072,357.811 114.760,357.145 117.412 C 356.949 118.193,356.763 118.109,356.256 117.010 C 355.730 115.868,354.588 114.924,352.338 113.769 C 350.277 112.711,350.275 112.711,349.706 113.768 C 348.767 115.512,347.975 115.211,346.912 112.708 C 346.485 111.703,346.270 111.448,345.926 111.538 C 345.383 111.680,345.535 111.359,347.089 109.090 C 348.289 107.337,348.325 106.878,347.286 106.588 C 346.066 106.249,345.618 106.506,345.146 107.819 C 344.621 109.279,344.029 109.900,344.029 108.992 C 344.029 108.046,344.513 106.850,345.410 105.581 C 346.494 104.047,346.634 103.132,345.979 101.849 C 344.869 99.674,341.584 98.643,340.002 99.975 C 339.039 100.785,339.211 100.876,337.780 98.805 C 335.751 95.870,335.578 95.335,335.748 92.508 C 335.967 88.872,335.424 88.302,333.140 89.767 C 330.609 91.391,328.835 89.939,328.831 86.242 C 328.829 83.687,327.771 83.053,324.999 83.944 C 322.697 84.684,322.609 84.587,324.112 82.964 C 326.244 80.661,325.239 79.968,321.334 81.050 C 317.310 82.165,316.945 81.795,318.653 78.324 C 318.708 78.212,318.537 78.235,318.273 78.377 C 317.890 78.581,317.706 78.537,317.363 78.159 C 316.657 77.378,316.367 77.595,315.577 79.492 C 314.394 82.333,313.150 84.295,313.149 83.320 C 313.148 81.922,312.472 81.431,310.521 81.410 C 308.441 81.388,307.785 80.909,307.349 79.093 C 306.996 77.621,307.095 77.514,308.469 77.881 C 310.263 78.361,310.669 77.364,309.167 76.165 C 308.246 75.430,307.558 74.256,307.140 72.705 C 306.483 70.262,305.261 70.994,304.921 74.035 C 304.478 77.993,303.663 77.881,303.538 73.844 L 303.457 71.234 304.190 70.399 C 304.592 69.941,305.334 69.391,305.839 69.177 C 310.486 67.208,310.978 66.803,310.976 64.939 C 310.975 62.931,309.645 61.556,306.388 60.196 C 305.528 59.837,304.214 59.219,303.466 58.824 C 302.146 58.126,302.077 58.115,301.062 58.458 C 299.249 59.071,299.205 58.968,299.896 55.766 C 300.263 54.066,299.879 53.342,298.794 53.690 C 297.054 54.248,297.067 54.254,294.602 51.682 C 292.624 49.618,292.137 49.235,291.315 49.097 C 287.609 48.473,286.492 46.080,289.907 46.080 L 291.422 46.080 291.806 44.758 C 292.441 42.576,291.503 41.413,289.218 41.549 C 288.096 41.616,288.090 41.612,288.539 41.134 C 289.530 40.076,289.812 37.964,289.137 36.659 C 288.562 35.546,287.788 35.706,286.202 37.268 C 284.740 38.706,282.805 39.807,281.738 39.807 C 280.798 39.807,280.883 39.543,282.253 38.200 C 282.909 37.558,283.556 36.761,283.690 36.429 C 283.878 35.968,283.901 36.161,283.788 37.251 C 283.540 39.641,284.623 38.304,285.165 35.552 C 285.415 34.278,285.401 33.963,285.059 33.242 C 284.753 32.597,284.720 32.256,284.913 31.748 C 285.960 28.994,282.615 25.781,280.599 27.605 C 280.097 28.060,280.097 28.059,280.097 27.030 C 280.097 23.212,277.678 22.959,275.279 26.526 C 273.873 28.617,273.774 28.710,272.913 28.716 C 270.844 28.731,264.104 30.492,262.992 31.308 C 261.341 32.519,260.462 32.106,258.567 29.230 C 257.791 28.053,257.188 27.951,256.462 28.874 C 255.840 29.665,255.912 30.086,257.200 33.169 C 258.084 35.284,258.404 36.912,257.937 36.912 C 256.991 36.912,256.211 36.336,256.189 35.622 C 256.153 34.436,255.639 32.498,255.333 32.396 C 255.178 32.345,254.773 33.048,254.408 34.004 C 253.529 36.305,253.381 36.276,253.630 33.852 C 253.973 30.499,253.313 30.408,252.214 33.655 C 250.954 37.380,251.093 39.873,252.608 40.731 C 253.814 41.414,253.742 41.545,252.271 41.343 C 251.150 41.189,251.146 41.186,251.146 40.246 C 251.146 38.420,249.245 37.503,248.013 38.735 C 247.421 39.328,247.551 41.023,248.274 42.117 C 248.618 42.638,249.037 43.498,249.205 44.029 C 249.373 44.560,249.995 45.917,250.587 47.045 L 251.663 49.095 250.812 48.130 C 250.343 47.600,249.955 47.051,249.950 46.911 C 249.927 46.341,248.450 44.358,247.713 43.909 C 246.041 42.889,244.722 43.431,243.895 45.476 L 243.406 46.683 243.516 45.640 C 243.578 45.054,243.900 44.209,244.252 43.710 C 244.597 43.222,245.350 42.162,245.925 41.353 C 246.920 39.955,247.501 38.180,247.150 37.611 C 247.070 37.481,246.606 38.025,246.120 38.820 C 244.274 41.836,243.202 42.484,244.139 40.018 C 245.665 36.004,243.114 33.989,238.039 35.198 C 236.867 35.477,235.356 35.706,234.680 35.706 C 233.455 35.706,233.447 35.711,231.360 37.827 C 229.270 39.948,228.253 40.543,226.751 40.523 C 226.244 40.517,226.226 40.487,226.598 40.270 C 228.665 39.067,227.249 28.657,224.940 28.077 C 223.754 27.779,218.335 30.646,218.335 31.571 C 218.335 32.179,216.968 34.082,215.538 35.464 C 214.784 36.194,214.227 36.683,214.301 36.550 C 214.375 36.417,214.933 35.554,215.541 34.631 C 217.748 31.282,216.894 30.835,212.758 33.177 C 209.154 35.217,208.770 35.097,206.918 31.353 C 205.340 28.164,204.770 27.826,203.491 29.320 C 202.367 30.633,202.442 30.331,204.009 27.204 C 205.303 24.625,205.359 24.439,205.222 23.133 C 204.902 20.068,203.708 18.027,202.814 19.016 M279.477 30.500 C 279.158 31.771,277.011 32.792,273.884 33.160 C 272.050 33.377,272.312 33.184,274.984 32.354 C 277.265 31.645,279.373 30.454,279.373 29.874 C 279.373 29.720,279.432 29.653,279.505 29.726 C 279.578 29.799,279.565 30.147,279.477 30.500 M281.513 36.656 C 280.721 38.095,280.165 38.374,280.453 37.187 C 280.538 36.837,280.954 35.971,281.377 35.262 C 282.498 33.388,282.620 34.643,281.513 36.656 M136.697 38.422 C 136.563 39.139,134.277 43.185,134.007 43.185 C 133.781 43.185,135.160 39.864,135.883 38.668 C 136.726 37.272,136.924 37.212,136.697 38.422 M210.573 40.411 C 210.677 42.804,210.503 43.192,209.784 42.166 C 209.333 41.522,209.316 40.890,209.698 39.037 C 210.105 37.070,210.450 37.613,210.573 40.411 M219.204 40.578 C 219.544 41.249,220.073 42.049,220.380 42.356 C 221.037 43.013,220.939 43.185,219.905 43.185 C 218.528 43.185,217.524 41.390,217.951 39.690 C 218.155 38.877,218.446 39.083,219.204 40.578 M181.348 41.084 C 180.843 41.377,179.870 41.978,179.186 42.420 C 178.100 43.123,177.813 43.204,176.909 43.069 C 175.451 42.850,175.620 42.581,177.503 42.123 C 179.368 41.669,180.941 41.035,180.941 40.735 C 180.941 40.623,181.239 40.536,181.604 40.541 C 182.254 40.552,182.249 40.563,181.348 41.084 M225.070 40.860 C 224.575 41.293,223.908 41.473,224.036 41.139 C 224.114 40.937,224.401 40.772,224.674 40.772 C 224.947 40.772,225.126 40.812,225.070 40.860 M123.128 43.202 C 123.851 43.771,123.999 44.288,123.341 43.949 C 123.109 43.829,122.349 43.597,121.653 43.434 C 120.228 43.099,120.185 42.702,121.574 42.702 C 122.138 42.702,122.738 42.895,123.128 43.202 M208.396 45.936 C 209.320 46.417,210.026 47.238,210.595 48.492 C 211.262 49.964,211.233 50.575,210.560 49.216 C 209.756 47.589,208.216 46.164,206.962 45.883 L 205.911 45.649 206.827 45.623 C 207.332 45.609,208.037 45.750,208.396 45.936 M261.840 46.650 C 263.391 47.298,264.443 49.215,263.622 49.897 C 263.383 50.096,263.215 49.880,262.883 48.946 C 262.540 47.979,262.232 47.597,261.337 47.030 C 260.171 46.290,260.460 46.073,261.840 46.650 M138.538 47.412 C 136.895 48.519,135.580 50.210,134.250 52.928 C 133.658 54.137,133.174 55.065,133.173 54.990 C 133.159 52.687,135.968 48.334,138.228 47.156 C 139.836 46.318,139.983 46.439,138.538 47.412 M266.246 49.510 C 266.438 50.268,266.666 51.073,266.752 51.298 C 267.005 51.956,266.392 51.455,265.988 50.673 C 265.418 49.571,265.184 48.176,265.459 47.516 L 265.705 46.924 265.801 47.527 C 265.853 47.859,266.054 48.751,266.246 49.510 M255.489 52.364 C 256.748 52.644,259.172 53.575,259.025 53.722 C 258.923 53.823,253.282 52.380,253.096 52.205 C 252.903 52.024,254.411 52.125,255.489 52.364 M157.300 56.825 C 157.492 57.751,157.483 58.241,157.265 58.767 C 156.977 59.461,156.971 59.454,156.804 58.142 C 156.711 57.413,156.453 56.110,156.230 55.247 C 155.573 52.703,155.578 52.648,156.327 54.151 C 156.721 54.941,157.159 56.144,157.300 56.825 M294.950 55.128 C 295.139 56.137,294.914 57.516,294.505 57.857 C 294.278 58.046,294.228 57.843,294.287 56.976 C 294.359 55.939,294.154 54.633,293.734 53.438 C 293.601 53.059,293.697 53.099,294.178 53.620 C 294.515 53.985,294.863 54.664,294.950 55.128 M164.033 53.740 C 164.486 53.972,165.015 54.406,165.208 54.704 L 165.558 55.246 164.504 54.662 C 163.924 54.340,163.042 54.003,162.543 53.911 C 162.044 53.820,161.576 53.649,161.503 53.531 C 161.266 53.148,163.186 53.307,164.033 53.740 M231.915 56.215 C 231.553 57.599,230.351 58.013,226.035 58.243 C 224.763 58.310,223.433 58.475,223.079 58.610 C 222.726 58.744,222.437 58.797,222.437 58.727 C 222.437 58.422,224.195 57.920,226.538 57.556 C 229.406 57.109,231.191 56.590,231.615 56.078 C 232.004 55.611,232.065 55.639,231.915 56.215 M241.737 58.323 C 241.738 58.865,239.546 63.450,239.286 63.450 C 239.060 63.450,239.767 61.577,240.650 59.834 C 240.982 59.178,241.255 58.474,241.255 58.271 C 241.255 58.068,241.363 57.901,241.496 57.901 C 241.628 57.901,241.737 58.091,241.737 58.323 M269.723 59.710 C 269.340 60.171,263.306 60.259,263.590 59.799 C 263.705 59.614,264.350 59.571,265.595 59.665 C 266.605 59.741,267.865 59.714,268.396 59.604 C 269.947 59.283,270.069 59.293,269.723 59.710 M204.081 62.238 C 204.957 62.489,205.915 63.263,206.328 64.053 C 206.566 64.510,206.549 64.508,206.004 64.021 C 205.139 63.248,203.969 62.720,202.324 62.362 L 200.844 62.041 202.052 62.022 C 202.717 62.011,203.630 62.108,204.081 62.238 M247.095 64.743 C 246.683 66.356,244.912 67.983,244.077 67.515 C 243.539 67.215,243.723 66.933,244.829 66.363 C 246.132 65.691,246.803 64.966,246.807 64.225 C 246.810 63.764,246.872 63.668,247.019 63.899 C 247.133 64.079,247.167 64.459,247.095 64.743 M179.686 64.704 C 180.310 65.329,179.765 67.544,178.907 67.873 C 178.187 68.149,178.139 66.781,178.809 65.078 C 179.097 64.344,179.258 64.276,179.686 64.704 M133.689 66.255 C 133.937 66.479,134.249 67.070,134.383 67.568 C 134.645 68.539,136.042 69.962,136.739 69.967 C 136.967 69.969,137.696 70.241,138.359 70.573 L 139.566 71.176 138.412 71.056 C 136.579 70.865,134.696 69.853,134.138 68.758 C 132.651 65.844,126.807 66.287,127.745 69.242 C 127.825 69.495,127.731 70.005,127.535 70.376 L 127.180 71.049 126.912 70.351 C 125.784 67.411,131.290 64.084,133.689 66.255 M155.391 65.633 C 155.651 65.773,155.800 65.990,155.722 66.116 C 155.634 66.258,155.382 66.240,155.064 66.070 C 154.716 65.884,153.642 65.839,151.762 65.932 C 148.829 66.078,148.594 66.010,150.784 65.653 C 152.667 65.346,154.836 65.336,155.391 65.633 M222.344 66.884 C 223.443 67.849,223.891 68.879,223.863 70.378 L 223.841 71.532 223.530 70.401 C 222.571 66.920,221.114 65.697,220.193 67.600 C 219.852 68.303,219.827 68.313,219.668 67.812 C 219.173 66.250,220.928 65.641,222.344 66.884 M184.922 67.300 C 185.387 67.491,184.590 68.034,183.844 68.034 C 183.734 68.034,183.090 68.406,182.413 68.862 C 181.126 69.728,181.068 69.390,182.307 68.247 C 183.525 67.123,184.037 66.938,184.922 67.300 M133.087 73.221 C 132.919 75.649,132.369 77.264,131.444 78.043 C 130.607 78.746,130.650 78.744,127.534 78.302 C 126.225 78.117,124.759 78.021,124.278 78.089 C 123.446 78.207,123.492 78.152,125.196 76.995 C 126.961 75.797,126.997 75.785,127.339 76.273 C 129.022 78.677,131.510 77.190,132.002 73.486 C 132.527 69.546,133.354 69.344,133.087 73.221 M243.061 72.869 C 242.642 74.129,242.394 74.273,241.631 73.696 C 241.172 73.349,241.173 73.341,241.682 73.341 C 242.244 73.341,242.702 72.703,242.702 71.921 C 242.702 71.653,242.838 71.133,243.004 70.765 L 243.305 70.095 243.382 70.884 C 243.424 71.318,243.279 72.211,243.061 72.869 M126.616 74.912 C 126.573 74.955,126.230 75.068,125.854 75.162 L 125.171 75.334 125.794 74.710 C 126.137 74.368,126.434 73.946,126.454 73.775 C 126.473 73.603,126.536 73.770,126.592 74.148 C 126.649 74.525,126.659 74.869,126.616 74.912 M110.039 74.702 C 108.209 75.500,103.498 75.726,103.498 75.016 C 103.498 74.689,104.341 74.555,106.876 74.477 C 108.136 74.438,109.548 74.393,110.012 74.376 L 110.856 74.346 110.039 74.702 M122.411 74.878 C 124.068 75.311,124.424 75.474,123.979 75.593 C 122.993 75.857,118.087 75.769,116.114 75.452 L 114.234 75.151 116.164 75.016 C 117.226 74.942,118.366 74.759,118.697 74.609 C 119.564 74.218,120.012 74.250,122.411 74.878 M263.954 75.954 C 263.040 77.662,259.694 80.346,258.504 80.325 C 258.239 80.320,257.533 80.054,256.936 79.735 L 255.850 79.153 257.660 79.141 C 260.679 79.121,261.381 78.776,263.293 76.376 C 264.039 75.439,264.329 75.254,263.954 75.954 M245.772 77.267 C 246.508 78.002,246.190 78.813,244.905 79.477 L 244.218 79.832 244.601 78.766 C 245.155 77.224,244.836 76.975,242.938 77.470 C 241.803 77.766,241.496 77.780,241.496 77.537 C 241.496 76.333,244.639 76.134,245.772 77.267 M206.550 76.980 C 206.818 77.123,207.182 77.584,207.359 78.005 C 207.618 78.618,207.974 78.882,209.163 79.338 C 210.985 80.036,210.943 80.093,208.806 79.820 C 207.059 79.598,205.403 79.735,204.895 80.145 C 204.575 80.403,203.192 80.183,202.714 79.798 C 201.388 78.730,204.942 76.119,206.550 76.980 M231.652 78.342 C 232.356 78.267,233.148 78.128,233.414 78.033 C 233.718 77.924,233.585 78.136,233.052 78.607 C 232.091 79.456,232.060 79.463,230.789 79.110 C 229.735 78.818,228.709 77.918,228.709 77.286 C 228.709 76.961,228.898 77.049,229.541 77.672 C 230.325 78.431,230.446 78.470,231.652 78.342 M218.596 78.098 C 218.734 78.460,218.758 78.948,218.651 79.189 C 218.492 79.543,218.382 79.420,218.064 78.534 C 217.615 77.286,218.128 76.866,218.596 78.098 M220.724 78.714 C 221.253 79.949,221.213 80.271,220.664 79.192 C 220.277 78.430,219.898 77.261,220.100 77.448 C 220.174 77.517,220.455 78.087,220.724 78.714 M217.362 79.192 C 217.354 80.621,217.335 80.668,217.008 80.097 C 216.594 79.372,216.560 78.779,216.896 78.151 C 217.293 77.410,217.371 77.584,217.362 79.192 M222.286 79.578 C 222.153 81.013,222.077 81.233,221.832 80.899 C 221.671 80.677,221.589 80.271,221.651 79.995 C 222.284 77.177,222.524 77.020,222.286 79.578 M228.543 82.858 C 230.546 83.565,231.258 84.011,231.430 84.668 C 231.555 85.147,231.531 85.144,230.877 84.594 C 230.501 84.277,229.655 83.825,228.998 83.588 C 227.993 83.227,226.388 82.279,226.779 82.278 C 226.846 82.278,227.639 82.539,228.543 82.858 M247.663 82.789 L 249.230 83.078 247.513 84.030 C 245.963 84.889,245.759 84.946,245.422 84.609 C 245.028 84.215,245.178 83.336,245.595 83.594 C 245.900 83.782,245.900 83.667,245.593 82.859 C 245.386 82.315,245.406 82.235,245.721 82.356 C 245.927 82.435,246.801 82.630,247.663 82.789 M103.442 83.112 C 104.546 83.112,104.657 83.154,104.287 83.428 C 103.963 83.668,103.367 83.698,101.809 83.552 C 99.137 83.303,98.030 83.354,97.520 83.748 C 97.179 84.012,97.185 83.975,97.552 83.544 C 98.109 82.890,98.622 82.794,100.603 82.972 C 101.466 83.049,102.743 83.112,103.442 83.112 M303.098 83.487 C 304.272 84.410,304.520 87.266,303.615 89.432 C 303.308 90.167,303.204 90.244,302.882 89.977 C 302.131 89.354,302.036 88.866,302.538 88.227 C 303.133 87.471,303.146 87.093,302.578 87.093 C 302.338 87.093,301.861 86.794,301.520 86.429 C 299.608 84.387,300.983 81.823,303.098 83.487 M254.655 86.381 C 255.423 87.182,255.241 87.564,254.085 87.572 C 252.701 87.581,252.010 86.570,253.024 86.020 C 253.893 85.549,253.849 85.539,254.655 86.381 M102.761 86.475 L 103.313 87.063 101.381 87.018 C 99.392 86.971,98.432 87.361,98.432 88.216 C 98.432 88.394,98.323 88.540,98.191 88.540 C 97.756 88.540,97.936 88.165,98.733 87.410 C 100.400 85.831,101.841 85.496,102.761 86.475 M300.121 86.852 L 300.724 87.045 300.121 87.071 C 299.789 87.086,298.937 87.368,298.227 87.698 C 296.532 88.487,296.430 88.447,297.587 87.449 C 298.562 86.609,299.023 86.500,300.121 86.852 M241.633 88.661 C 242.174 89.664,242.431 89.704,243.185 88.902 C 244.020 88.013,244.226 88.168,243.667 89.264 C 243.089 90.398,243.237 90.365,241.661 89.706 C 239.836 88.941,239.718 88.813,240.355 88.282 C 241.076 87.680,241.110 87.690,241.633 88.661 M252.298 92.991 C 253.190 93.448,254.246 94.055,254.644 94.340 L 255.368 94.857 254.644 94.700 C 253.561 94.466,252.095 93.711,251.146 92.900 C 250.040 91.955,250.321 91.977,252.298 92.991 M75.920 93.804 C 76.838 93.999,76.837 94.000,75.372 94.157 C 74.565 94.244,73.724 94.384,73.502 94.469 C 73.169 94.597,73.100 94.461,73.100 93.673 C 73.100 92.400,73.277 92.294,74.209 93.005 C 74.644 93.337,75.414 93.696,75.920 93.804 M240.572 93.272 C 241.260 93.622,241.894 94.413,242.578 95.778 C 242.929 96.477,242.759 96.357,241.593 95.079 C 240.819 94.231,239.856 93.327,239.453 93.070 C 238.596 92.524,239.380 92.666,240.572 93.272 M330.036 92.926 C 330.036 93.192,329.047 96.510,328.906 96.717 C 328.871 96.769,328.676 96.674,328.474 96.507 C 327.905 96.035,328.036 95.018,328.825 93.775 C 329.513 92.689,330.036 92.323,330.036 92.926 M273.882 95.166 C 276.264 95.671,276.780 96.090,274.789 95.903 C 270.663 95.516,269.964 95.483,269.157 95.634 C 268.681 95.724,268.112 95.975,267.895 96.193 C 267.528 96.559,267.506 96.554,267.586 96.123 C 267.812 94.915,270.658 94.483,273.882 95.166 M229.916 97.004 C 230.607 97.163,231.248 97.523,231.682 97.997 L 232.362 98.740 231.561 98.573 C 229.798 98.206,227.584 98.130,227.046 98.418 C 226.537 98.691,226.507 98.666,226.581 98.028 C 226.701 96.981,228.033 96.572,229.916 97.004 M275.513 98.280 C 275.844 98.460,276.761 99.002,277.549 99.485 C 279.805 100.865,278.254 100.599,275.633 99.156 C 273.796 98.144,273.573 97.960,274.186 97.956 C 274.584 97.954,275.181 98.100,275.513 98.280 M173.281 99.159 C 174.062 100.016,174.171 101.964,173.589 104.704 L 173.257 106.273 173.375 103.498 C 173.512 100.278,173.208 99.346,171.773 98.590 L 170.929 98.145 171.773 98.288 C 172.278 98.373,172.884 98.723,173.281 99.159 M75.995 98.761 C 75.995 98.809,75.659 99.270,75.247 99.786 C 74.188 101.114,73.341 102.872,73.341 103.745 L 73.341 104.490 72.662 104.089 C 72.288 103.868,71.726 103.494,71.413 103.258 L 70.843 102.828 71.807 102.336 C 72.710 101.876,74.548 100.103,74.548 99.693 C 74.548 99.592,74.846 99.324,75.211 99.097 C 75.922 98.657,75.995 98.625,75.995 98.761 M283.237 101.193 L 282.929 102.292 281.042 102.292 C 278.710 102.292,276.270 101.822,277.201 101.553 C 277.533 101.457,278.700 101.437,279.795 101.509 C 281.365 101.612,281.785 101.571,281.785 101.315 C 281.785 101.137,282.078 100.686,282.435 100.313 C 283.309 99.401,283.637 99.761,283.237 101.193 M240.886 100.591 C 241.089 100.983,241.255 101.525,241.255 101.797 C 241.255 102.408,241.325 102.408,243.086 101.800 C 245.132 101.095,246.154 101.271,244.511 102.047 C 242.843 102.834,241.130 102.850,240.510 102.084 C 240.059 101.528,239.888 100.362,240.209 100.040 C 240.454 99.796,240.491 99.826,240.886 100.591 M331.430 104.637 C 332.189 105.350,332.546 105.805,332.222 105.648 C 331.389 105.244,329.334 103.275,328.929 102.492 C 328.391 101.451,328.528 101.426,329.319 102.421 C 329.721 102.926,330.671 103.923,331.430 104.637 M180.944 103.787 C 179.916 104.702,178.566 105.555,178.413 105.386 C 178.374 105.343,178.265 104.819,178.171 104.222 C 178.013 103.216,178.027 103.172,178.367 103.619 C 178.729 104.096,178.751 104.092,180.241 103.319 C 182.108 102.352,182.364 102.522,180.944 103.787 M290.197 104.292 C 290.752 104.660,291.719 105.633,292.346 106.454 C 294.681 109.515,295.557 110.313,296.426 110.172 C 297.007 110.078,297.441 110.203,298.121 110.660 C 299.216 111.396,299.056 111.197,299.251 112.063 L 299.415 112.786 298.785 112.002 C 298.064 111.104,297.467 110.981,297.467 111.730 C 297.467 112.130,297.396 112.184,297.145 111.975 C 296.967 111.828,296.191 111.564,295.418 111.389 C 294.065 111.081,294.003 111.033,293.718 110.067 C 292.925 107.381,290.436 104.704,288.732 104.704 L 288.025 104.704 288.557 105.451 L 289.089 106.198 288.356 105.820 C 287.611 105.434,285.673 105.071,282.630 104.746 L 280.941 104.565 283.353 104.053 C 286.714 103.340,288.871 103.415,290.197 104.292 M70.695 105.637 C 68.415 107.491,67.729 108.285,67.852 108.928 C 67.946 109.418,67.905 109.482,67.639 109.261 C 67.155 108.859,67.233 108.452,67.962 107.585 C 68.760 106.637,71.486 104.456,71.653 104.633 C 71.719 104.703,71.288 105.155,70.695 105.637 M92.529 106.860 C 92.071 107.746,89.066 110.497,88.566 110.487 C 88.166 110.480,88.188 110.458,91.046 108.007 C 91.851 107.317,92.400 106.650,92.400 106.364 C 92.400 106.099,92.509 105.949,92.641 106.031 C 92.793 106.125,92.752 106.429,92.529 106.860 M291.431 108.748 C 292.271 109.712,292.892 110.566,292.811 110.647 C 292.566 110.892,290.594 109.610,290.287 109.007 C 289.757 107.964,289.267 106.289,289.600 106.659 C 289.767 106.845,290.591 107.785,291.431 108.748 M343.171 109.241 C 342.160 111.675,340.046 114.688,339.798 114.051 C 339.688 113.768,339.864 113.338,340.323 112.767 C 341.846 110.871,343.064 108.990,343.064 108.535 C 343.064 108.270,343.172 108.120,343.303 108.201 C 343.454 108.294,343.405 108.679,343.171 109.241 M238.412 108.945 C 239.811 109.317,241.649 109.170,243.389 108.547 C 243.974 108.337,243.956 108.379,243.185 109.034 C 241.725 110.273,238.598 110.152,236.561 108.777 C 235.735 108.220,235.662 108.213,238.412 108.945 M144.374 110.632 C 145.674 111.933,144.014 112.929,141.971 112.075 C 140.909 111.631,140.906 111.283,141.962 111.085 C 142.417 111.000,142.848 110.777,142.919 110.591 C 143.093 110.139,143.903 110.162,144.374 110.632 M271.454 111.553 C 271.523 112.147,271.465 112.337,271.239 112.251 C 270.503 111.968,269.694 112.489,268.719 113.871 C 267.564 115.509,267.187 115.622,268.105 114.056 C 268.625 113.168,270.932 110.736,271.254 110.736 C 271.311 110.736,271.401 111.103,271.454 111.553 M253.065 113.578 C 253.081 114.707,252.403 116.272,252.103 115.798 C 251.792 115.306,251.815 113.470,252.147 112.304 L 252.422 111.339 252.738 112.063 C 252.912 112.461,253.059 113.143,253.065 113.578 M345.339 112.769 C 345.250 113.123,345.131 113.366,345.074 113.309 C 345.017 113.252,345.043 112.916,345.132 112.562 C 345.221 112.209,345.340 111.966,345.397 112.023 C 345.453 112.080,345.427 112.416,345.339 112.769 M275.531 114.628 C 275.048 116.242,274.061 116.428,273.104 115.084 L 272.613 114.395 273.345 114.671 C 274.344 115.048,274.781 114.722,275.242 113.256 L 275.617 112.063 275.705 112.907 C 275.754 113.372,275.676 114.146,275.531 114.628 M292.527 114.618 C 294.349 115.768,294.386 115.820,293.185 115.541 C 292.687 115.426,291.742 115.329,291.086 115.325 C 290.157 115.321,289.956 115.255,290.181 115.030 C 290.635 114.576,290.530 114.357,289.686 113.991 L 288.902 113.650 289.934 113.640 C 290.735 113.633,291.313 113.851,292.527 114.618 M352.049 114.777 C 353.222 116.011,353.147 117.386,351.941 116.741 C 351.643 116.582,350.990 116.467,350.489 116.487 C 349.406 116.529,349.426 116.617,350.202 115.229 C 350.925 113.935,351.187 113.871,352.049 114.777 M67.412 114.808 C 67.613 115.132,66.280 115.320,63.782 115.320 C 60.545 115.320,60.647 115.502,64.656 116.888 C 65.917 117.324,67.165 117.773,67.431 117.886 C 67.885 118.080,65.877 118.337,59.952 118.842 L 58.263 118.986 59.618 117.682 C 60.363 116.965,61.117 115.977,61.295 115.487 L 61.617 114.596 64.449 114.596 C 66.007 114.596,67.340 114.691,67.412 114.808 M287.575 116.647 C 287.239 117.052,286.852 117.126,286.852 116.785 C 286.852 116.662,287.042 116.512,287.274 116.451 C 287.506 116.390,287.736 116.328,287.786 116.313 C 287.835 116.297,287.741 116.448,287.575 116.647 M305.302 118.461 C 304.921 118.860,303.931 119.627,303.102 120.167 C 302.162 120.780,301.515 121.391,301.381 121.792 L 301.166 122.435 300.866 121.873 C 300.463 121.120,300.924 120.621,303.151 119.398 C 304.088 118.883,305.065 118.258,305.322 118.008 C 306.079 117.273,306.061 117.669,305.302 118.461 M161.527 120.797 C 161.287 122.073,161.072 121.545,161.290 120.216 C 161.394 119.580,161.526 119.260,161.583 119.505 C 161.639 119.751,161.614 120.332,161.527 120.797 M160.662 121.834 C 160.950 121.834,161.119 121.942,161.037 122.075 C 160.705 122.613,158.504 121.092,158.504 120.324 C 158.504 120.173,158.872 120.452,159.321 120.942 C 159.783 121.446,160.365 121.834,160.662 121.834 M376.867 121.615 C 375.548 121.870,375.665 121.722,375.259 123.661 C 374.871 125.517,373.708 127.631,372.573 128.547 C 371.250 129.614,372.661 129.894,375.904 129.207 C 380.836 128.161,382.993 125.436,380.639 123.227 C 378.661 121.370,378.495 121.299,376.867 121.615 M310.486 122.059 C 310.744 122.541,310.450 123.767,310.078 123.760 C 309.976 123.759,309.196 123.540,308.347 123.273 C 307.498 123.007,306.575 122.856,306.296 122.937 C 305.811 123.078,305.813 123.068,306.330 122.689 C 307.776 121.628,310.070 121.281,310.486 122.059 M57.280 122.680 C 60.530 123.061,62.244 123.451,62.244 123.810 C 62.244 123.927,61.999 123.890,61.701 123.729 C 61.400 123.566,59.597 123.358,57.660 123.261 C 54.179 123.087,53.317 122.942,53.317 122.531 C 53.317 122.243,53.649 122.256,57.280 122.680 M321.351 127.141 L 321.351 128.589 320.416 128.589 C 319.902 128.589,319.124 128.517,318.688 128.430 L 317.895 128.271 319.313 127.767 C 320.534 127.332,320.762 127.153,320.955 126.478 C 321.274 125.364,321.351 125.494,321.351 127.141 M198.191 127.012 C 198.842 127.310,198.530 127.345,195.074 127.363 C 192.962 127.374,191.287 127.330,191.351 127.266 C 191.892 126.725,197.137 126.530,198.191 127.012 M181.811 129.515 C 181.976 130.363,181.405 131.460,180.685 131.680 C 180.405 131.765,180.396 131.723,180.639 131.466 C 181.281 130.785,180.983 130.078,179.674 129.177 C 178.882 128.632,178.634 128.369,179.011 128.475 C 179.343 128.569,179.785 128.796,179.995 128.979 C 180.577 129.489,180.699 129.391,180.705 128.408 L 180.710 127.503 181.182 128.106 C 181.442 128.438,181.725 129.072,181.811 129.515 M172.014 129.342 C 174.901 129.648,175.875 130.055,175.875 130.955 C 175.875 131.250,175.783 131.234,175.383 130.872 C 175.011 130.536,174.341 130.391,172.638 130.279 C 171.121 130.179,170.178 129.995,169.752 129.716 C 169.038 129.248,168.882 128.681,169.542 128.951 C 169.774 129.046,170.886 129.222,172.014 129.342 M357.901 133.792 L 358.866 134.156 357.901 134.009 C 356.566 133.805,355.697 133.151,354.222 131.236 C 352.383 128.850,352.687 128.880,354.957 131.311 C 356.293 132.741,357.250 133.547,357.901 133.792 M57.370 131.924 C 56.166 132.050,55.609 131.791,55.188 130.907 L 54.790 130.073 56.451 130.959 C 58.027 131.800,58.074 131.850,57.370 131.924 M132.871 132.277 C 133.931 133.248,133.183 134.676,131.128 135.605 C 129.824 136.195,129.791 136.025,130.966 134.751 C 132.087 133.535,132.338 132.223,131.544 131.725 C 131.192 131.504,131.222 131.487,131.725 131.621 C 132.057 131.708,132.572 132.004,132.871 132.277 M316.526 131.721 C 318.564 132.288,320.240 134.531,320.102 136.505 C 320.004 137.908,320.644 138.316,324.693 139.431 C 326.200 139.845,327.937 140.459,328.553 140.794 C 329.170 141.128,329.457 141.334,329.192 141.251 C 328.926 141.168,327.352 140.777,325.694 140.383 C 321.069 139.283,318.344 137.856,319.424 137.100 C 320.732 136.183,318.214 132.887,315.425 131.866 C 314.272 131.443,315.125 131.331,316.526 131.721 M314.797 134.706 C 314.937 135.438,314.536 135.592,313.385 135.249 C 312.790 135.072,311.653 134.839,310.856 134.732 C 308.900 134.469,310.029 134.170,312.784 134.222 C 314.454 134.253,314.723 134.318,314.797 134.706 M83.514 138.102 C 83.514 139.465,82.685 141.351,81.641 142.363 L 80.805 143.174 81.889 141.271 C 82.985 139.348,83.410 137.793,83.124 136.755 C 82.988 136.259,83.003 136.243,83.241 136.625 C 83.391 136.865,83.514 137.530,83.514 138.102 M95.778 137.380 C 95.778 137.438,94.956 137.917,93.952 138.443 C 92.686 139.106,92.260 139.251,92.564 138.914 C 93.269 138.135,95.778 136.937,95.778 137.380 M322.753 141.641 C 325.114 142.428,325.691 142.886,323.502 142.236 C 320.548 141.359,319.403 141.903,320.855 143.493 C 321.687 144.404,321.487 144.446,319.386 143.797 C 315.199 142.503,312.497 140.761,316.359 141.845 C 318.983 142.581,319.903 142.447,319.903 141.327 C 319.903 140.744,320.139 140.770,322.753 141.641 M170.870 143.581 C 170.701 143.750,170.351 143.777,169.921 143.655 L 169.240 143.462 170.084 143.312 C 171.057 143.140,171.247 143.204,170.870 143.581 M373.298 143.324 C 372.851 143.771,371.014 144.059,369.676 143.892 C 367.857 143.665,368.091 143.341,370.145 143.243 C 371.107 143.197,372.268 143.138,372.726 143.112 C 373.322 143.078,373.484 143.138,373.298 143.324 M82.970 146.325 C 82.775 146.520,81.968 146.792,81.175 146.930 C 80.383 147.067,79.463 147.293,79.131 147.431 C 78.570 147.665,78.556 147.654,78.923 147.279 C 79.295 146.899,82.989 145.700,83.218 145.885 C 83.277 145.932,83.165 146.130,82.970 146.325 M91.308 149.792 C 91.842 150.029,92.429 150.404,92.611 150.624 C 92.991 151.084,92.819 151.137,92.135 150.771 C 91.874 150.631,90.486 150.363,89.050 150.174 C 85.838 149.752,85.170 149.534,86.369 149.298 C 87.639 149.048,90.210 149.305,91.308 149.792 M166.954 150.438 C 167.320 151.401,167.239 151.551,166.582 151.121 C 166.163 150.846,165.702 150.767,165.101 150.864 L 164.229 151.006 164.786 150.412 C 165.554 149.595,166.638 149.607,166.954 150.438 M262.574 151.979 C 263.164 153.220,263.727 153.471,264.116 152.664 C 264.352 152.174,264.384 152.241,264.399 153.249 C 264.429 155.348,262.257 153.567,261.395 150.786 C 261.088 149.795,261.953 150.671,262.574 151.979 M91.230 151.875 C 91.847 152.087,92.542 152.471,92.775 152.728 C 93.274 153.279,92.964 153.347,92.247 152.845 C 91.658 152.432,88.540 152.052,88.540 152.392 C 88.540 152.517,88.920 152.988,89.385 153.438 C 90.247 154.274,90.501 155.127,89.888 155.127 C 89.700 155.127,89.144 154.702,88.652 154.183 C 88.036 153.533,87.409 153.153,86.641 152.962 C 84.254 152.369,82.992 151.947,82.992 151.743 C 82.992 151.182,89.519 151.287,91.230 151.875 M368.133 154.160 C 367.946 154.260,366.971 154.521,365.967 154.741 C 364.963 154.960,363.932 155.285,363.675 155.462 C 363.417 155.641,363.005 155.712,362.752 155.621 C 362.422 155.503,362.742 155.337,363.908 155.022 C 364.794 154.782,365.741 154.407,366.011 154.188 C 366.344 153.918,366.817 153.821,367.487 153.884 C 368.110 153.944,368.348 154.045,368.133 154.160 M77.003 155.898 C 76.046 157.439,73.435 159.569,72.681 159.424 C 72.388 159.367,73.016 158.687,74.793 157.134 C 77.464 154.800,77.802 154.611,77.003 155.898 M38.118 158.856 C 34.561 159.315,33.941 159.650,35.625 160.206 C 37.447 160.808,42.478 159.892,42.658 158.926 C 42.754 158.415,41.668 158.398,38.118 158.856 M363.710 158.717 C 360.954 158.963,361.483 159.496,365.188 160.206 C 367.087 160.570,368.878 160.341,368.878 159.734 C 368.878 158.860,366.764 158.443,363.710 158.717 M361.399 159.964 C 361.399 160.763,363.370 163.064,364.347 163.405 C 365.208 163.705,365.027 163.019,363.988 162.047 C 363.395 161.492,362.720 160.739,362.489 160.374 C 362.075 159.722,361.399 159.467,361.399 159.964 M230.135 168.236 C 230.852 168.656,231.530 169.250,231.640 169.556 L 231.841 170.114 231.180 169.648 C 230.816 169.391,229.956 168.898,229.269 168.552 C 228.029 167.927,227.262 167.146,227.262 166.509 C 227.262 166.292,227.534 166.402,228.046 166.825 C 228.477 167.182,229.417 167.817,230.135 168.236 M316.291 166.868 C 316.619 167.090,316.939 167.313,317.001 167.364 C 317.320 167.625,316.232 167.906,314.890 167.909 C 313.216 167.914,311.888 168.354,311.492 169.037 C 311.349 169.281,311.230 169.373,311.227 169.240 C 311.178 167.401,314.663 165.769,316.291 166.868 M295.203 167.435 C 295.338 167.570,296.147 167.801,297.001 167.949 C 298.941 168.284,299.835 168.730,300.131 169.509 C 300.510 170.506,300.396 170.674,299.787 170.017 C 299.471 169.676,298.738 169.269,298.159 169.114 C 296.072 168.552,295.044 168.104,294.802 167.651 C 294.539 167.160,294.793 167.024,295.203 167.435 M325.790 168.859 C 326.449 170.486,326.549 171.192,326.200 171.743 C 326.058 171.968,325.824 171.371,325.480 169.904 C 324.709 166.621,324.783 166.372,325.790 168.859 M245.364 168.759 C 246.230 168.840,247.099 169.017,247.294 169.153 C 247.852 169.542,243.551 169.179,242.635 168.759 L 241.858 168.402 242.823 168.508 C 243.353 168.566,244.497 168.679,245.364 168.759 M277.988 171.140 C 279.478 171.859,279.590 172.256,278.305 172.256 C 277.356 172.256,276.236 171.452,276.236 170.771 C 276.236 170.504,276.318 170.327,276.417 170.377 C 276.517 170.428,277.224 170.771,277.988 171.140 M257.660 171.874 C 257.660 172.446,257.383 172.980,257.091 172.971 C 256.736 172.960,254.065 174.260,254.051 174.451 C 254.046 174.530,254.482 174.794,255.020 175.036 C 256.225 175.580,255.965 175.766,253.679 175.997 L 251.990 176.168 253.197 174.907 C 255.552 172.445,257.660 171.013,257.660 171.874 M231.252 173.563 C 231.561 174.035,231.585 174.321,231.378 175.071 C 230.892 176.825,230.647 176.831,230.643 175.090 C 230.638 173.002,230.217 172.935,229.137 174.849 C 228.258 176.407,227.872 176.068,228.693 174.458 C 229.482 172.913,230.575 172.530,231.252 173.563 M266.345 176.340 C 267.108 176.491,267.143 176.531,266.707 176.758 C 265.906 177.173,260.634 176.573,260.927 176.100 C 261.066 175.874,264.838 176.042,266.345 176.340 M121.947 182.897 C 121.465 184.759,120.815 186.085,120.684 185.473 C 120.593 185.048,121.046 183.081,121.781 180.709 L 122.195 179.373 122.268 180.374 C 122.309 180.925,122.164 182.061,121.947 182.897 M311.764 182.539 C 311.914 183.869,312.213 184.115,313.567 184.023 L 314.590 183.954 313.886 184.657 C 313.114 185.429,312.312 185.219,311.706 184.087 C 311.334 183.391,311.104 181.423,311.395 181.423 C 311.529 181.423,311.695 181.925,311.764 182.539 M316.649 187.387 C 316.067 188.307,315.302 188.891,314.670 188.897 C 314.114 188.903,313.610 188.386,314.034 188.245 C 314.171 188.200,314.869 187.805,315.585 187.369 C 317.083 186.456,317.237 186.459,316.649 187.387 M134.856 190.693 C 135.140 191.708,135.013 193.245,134.646 193.245 C 134.295 193.245,133.645 191.498,133.430 189.982 C 133.310 189.132,133.141 188.297,133.055 188.127 C 132.969 187.956,133.272 188.226,133.729 188.727 C 134.187 189.228,134.694 190.113,134.856 190.693 M258.846 188.750 C 259.502 189.811,259.482 190.493,258.779 190.953 C 257.762 191.620,257.192 191.138,257.780 190.109 C 257.970 189.777,258.129 189.153,258.134 188.721 C 258.145 187.739,258.224 187.742,258.846 188.750 M137.655 191.632 C 137.002 192.939,134.940 195.424,135.216 194.572 C 135.302 194.306,135.990 193.097,136.745 191.884 C 138.168 189.600,138.751 189.438,137.655 191.632 M139.985 192.415 C 140.050 193.618,140.230 194.839,140.386 195.129 C 140.673 195.665,140.523 195.798,140.003 195.468 C 139.424 195.100,139.234 193.988,139.376 191.795 C 139.548 189.133,139.823 189.413,139.985 192.415 M293.653 202.637 C 293.135 203.324,292.630 203.372,290.109 202.973 L 288.661 202.743 290.109 202.446 C 292.885 201.877,293.569 201.520,293.780 200.526 L 293.969 199.638 294.044 200.827 C 294.100 201.713,294.000 202.174,293.653 202.637 M89.510 203.122 C 92.143 203.326,93.607 203.690,93.607 204.140 C 93.607 204.564,87.745 204.038,86.451 203.498 C 84.877 202.840,85.261 202.793,89.510 203.122 M307.874 207.961 C 307.895 208.426,307.827 209.077,307.721 209.409 C 307.273 210.810,306.924 207.779,307.290 205.669 L 307.457 204.704 307.645 205.911 C 307.749 206.574,307.852 207.497,307.874 207.961 M93.977 206.369 C 95.095 207.187,87.912 207.787,86.248 207.015 C 85.375 206.610,85.507 206.569,88.540 206.300 C 92.161 205.980,93.467 205.997,93.977 206.369 M301.282 207.616 C 303.960 207.992,304.337 208.121,305.047 208.906 C 305.730 209.660,305.384 209.764,303.267 209.440 C 300.640 209.038,299.350 208.557,298.527 207.672 C 297.972 207.076,297.927 206.957,298.306 207.093 C 298.569 207.188,299.908 207.423,301.282 207.616 M104.222 207.320 C 104.222 207.366,103.652 207.863,102.955 208.425 L 101.689 209.446 102.888 208.342 C 104.046 207.277,104.222 207.142,104.222 207.320 M171.894 209.615 C 173.111 209.839,172.409 210.370,170.884 210.379 C 169.947 210.385,168.608 211.150,168.946 211.487 C 169.045 211.586,170.292 211.546,171.716 211.397 C 174.623 211.094,175.114 211.260,173.850 212.119 C 172.237 213.215,166.948 211.751,166.948 210.208 C 166.948 209.499,169.566 209.185,171.894 209.615 M288.559 211.320 C 289.118 211.880,289.264 212.239,289.264 213.057 L 289.264 214.088 288.519 213.074 C 287.379 211.524,285.753 211.409,285.776 212.880 C 285.785 213.513,285.783 213.514,285.310 213.041 C 284.684 212.415,285.038 211.579,286.164 211.024 C 287.307 210.461,287.755 210.517,288.559 211.320 M140.367 212.671 C 141.974 213.050,145.733 214.752,145.289 214.900 C 144.962 215.009,141.207 213.756,139.445 212.950 C 137.912 212.249,138.204 212.161,140.367 212.671 M217.507 215.592 C 217.299 216.598,217.122 217.817,217.114 218.301 C 217.099 219.137,217.086 219.150,216.851 218.577 C 216.497 217.715,216.744 214.787,217.278 213.510 C 217.913 211.993,218.030 213.064,217.507 215.592 M309.958 213.841 C 307.885 215.756,307.092 216.128,306.345 215.540 L 305.758 215.078 307.060 215.078 C 308.203 215.078,308.442 214.990,309.010 214.355 C 309.650 213.640,310.984 212.557,311.218 212.564 C 311.285 212.566,310.718 213.140,309.958 213.841 M288.542 219.219 C 288.210 220.451,287.817 221.123,287.817 220.457 C 287.817 220.243,287.325 218.892,286.724 217.453 L 285.631 214.837 287.243 216.445 L 288.856 218.052 288.542 219.219 M175.513 216.926 C 176.583 217.201,177.905 218.103,178.290 218.823 C 178.537 219.285,178.530 219.285,177.750 218.835 C 177.316 218.584,176.092 218.141,175.030 217.851 C 173.969 217.562,172.774 217.110,172.376 216.848 L 171.653 216.373 173.100 216.526 C 173.896 216.610,174.982 216.790,175.513 216.926 M284.422 217.305 C 284.829 217.799,285.163 218.305,285.163 218.427 C 285.163 218.550,285.428 219.211,285.752 219.895 C 286.076 220.580,286.403 221.730,286.480 222.452 C 286.623 223.797,286.462 223.701,285.881 222.096 C 285.517 221.088,285.196 221.571,285.003 223.412 C 284.848 224.898,284.785 225.019,283.632 226.055 C 282.128 227.408,282.594 227.595,279.493 224.393 C 277.299 222.128,277.024 221.767,277.905 222.314 C 279.667 223.409,282.625 223.329,282.926 222.179 C 282.993 221.923,283.183 221.713,283.349 221.713 C 283.918 221.713,284.922 220.717,284.922 220.152 C 284.922 219.522,283.920 218.572,282.186 217.557 C 280.716 216.698,280.763 216.405,282.371 216.405 C 283.589 216.405,283.732 216.468,284.422 217.305 M210.521 221.141 C 210.854 221.822,211.281 222.962,211.471 223.675 C 212.839 228.814,210.667 226.464,208.901 220.894 L 207.991 218.025 208.953 218.964 C 209.482 219.481,210.187 220.461,210.521 221.141 M365.556 218.870 C 365.262 219.164,364.564 219.583,364.006 219.801 C 362.748 220.293,362.533 220.748,363.558 220.748 C 363.972 220.748,364.701 220.911,365.179 221.111 C 366.191 221.534,366.504 221.291,366.891 219.782 C 367.275 218.283,366.602 217.824,365.556 218.870 M188.645 226.243 L 188.063 230.509 187.658 228.825 C 186.885 225.612,187.120 222.724,188.251 221.517 L 188.773 220.959 189.000 221.468 C 189.155 221.815,189.042 223.337,188.645 226.243 M198.070 222.136 C 198.070 222.236,197.690 222.852,197.226 223.505 C 196.316 224.785,196.163 225.504,196.752 225.730 C 197.224 225.911,197.718 226.884,197.928 228.046 C 198.277 229.976,198.792 228.957,198.974 225.976 C 199.120 223.580,199.300 223.630,199.917 226.241 C 200.401 228.288,200.588 228.313,201.582 226.461 C 201.988 225.705,202.445 224.961,202.599 224.808 C 203.228 224.178,203.594 226.784,203.251 229.452 C 203.095 230.664,203.183 231.098,204.132 233.795 C 205.566 237.867,205.518 243.537,204.028 246.193 C 202.098 249.634,195.086 248.429,193.986 244.468 C 193.335 242.123,193.654 237.807,194.711 234.656 C 195.504 232.295,195.668 231.514,195.555 230.639 C 195.109 227.204,195.124 226.439,195.661 225.010 C 196.313 223.275,198.070 221.179,198.070 222.136 M277.530 225.095 C 277.880 225.511,278.166 226.048,278.166 226.288 C 278.166 226.528,278.550 227.283,279.019 227.965 C 280.641 230.323,280.602 231.047,278.810 231.861 C 277.276 232.557,276.927 232.495,277.245 231.583 C 278.090 229.160,277.165 226.662,274.455 224.043 L 272.497 222.151 274.695 223.244 C 275.913 223.850,277.177 224.675,277.530 225.095 M271.539 223.199 C 273.643 225.046,274.890 230.397,272.884 228.968 C 272.499 228.694,271.440 228.136,270.532 227.729 C 267.045 226.164,266.696 225.485,268.429 223.633 C 269.759 222.211,270.324 222.132,271.539 223.199 M289.789 223.936 C 289.085 225.075,288.291 225.754,287.455 225.933 L 286.731 226.088 287.455 225.544 C 287.853 225.245,288.613 224.549,289.144 223.998 C 290.268 222.831,290.485 222.810,289.789 223.936 M293.671 225.230 C 294.655 225.697,295.100 225.998,294.692 225.920 C 293.182 225.630,291.910 225.030,291.322 224.331 C 290.529 223.389,290.527 222.890,291.319 223.745 C 291.653 224.106,292.712 224.774,293.671 225.230 M82.750 223.865 C 82.750 224.835,79.131 226.739,78.003 226.363 C 77.347 226.144,77.379 226.117,78.890 225.612 C 80.628 225.032,82.027 224.263,82.027 223.888 C 82.027 223.753,82.189 223.643,82.388 223.643 C 82.587 223.643,82.750 223.743,82.750 223.865 M317.877 225.595 C 321.570 226.238,320.352 226.936,315.100 227.186 C 312.673 227.301,311.909 227.270,312.039 227.059 C 312.134 226.905,312.457 226.779,312.757 226.779 C 314.269 226.779,316.314 225.820,315.501 225.492 C 314.946 225.268,316.349 225.329,317.877 225.595 M266.844 227.270 C 267.895 227.806,271.432 231.095,270.446 230.620 C 269.953 230.382,266.373 227.742,265.513 226.982 C 265.083 226.602,265.867 226.772,266.844 227.270 M286.128 227.354 C 286.128 227.482,283.183 229.225,283.111 229.140 C 282.524 228.455,282.822 228.087,284.261 227.719 C 286.132 227.241,286.128 227.242,286.128 227.354 M172.738 228.837 C 172.738 228.983,171.978 229.486,171.049 229.954 C 169.258 230.857,169.031 230.770,169.718 229.442 C 170.527 227.877,172.738 227.434,172.738 228.837 M265.044 228.649 C 265.524 229.281,265.448 229.798,264.755 230.621 C 263.689 231.888,263.256 230.942,264.041 229.063 C 264.437 228.115,264.591 228.051,265.044 228.649 M150.302 229.047 C 150.302 229.101,149.920 229.369,149.453 229.645 C 147.854 230.588,147.834 232.355,149.399 234.379 C 150.082 235.263,150.091 235.295,149.501 234.760 C 147.982 233.384,147.126 230.230,148.027 229.330 C 148.353 229.004,150.302 228.762,150.302 229.047 M356.543 231.646 C 356.534 234.071,356.287 234.437,355.961 232.507 C 355.828 231.723,356.214 229.192,356.466 229.192 C 356.513 229.192,356.547 230.296,356.543 231.646 M239.178 230.538 C 239.441 231.224,239.335 231.325,238.633 231.060 C 237.828 230.756,235.706 231.231,235.706 231.715 C 235.706 231.874,236.262 232.265,236.943 232.584 C 238.510 233.318,239.024 234.029,238.623 234.909 L 238.336 235.539 237.353 234.597 C 235.112 232.447,234.416 230.851,235.525 230.406 C 236.498 230.014,239.012 230.106,239.178 230.538 M242.109 232.268 C 242.331 233.296,242.715 234.490,242.961 234.922 C 243.475 235.820,243.281 235.935,242.492 235.200 C 241.727 234.487,241.496 233.734,241.496 231.951 C 241.496 229.930,241.616 229.993,242.109 232.268 M114.501 232.985 C 114.855 234.873,113.967 235.699,111.580 235.698 C 109.286 235.698,109.136 235.371,111.035 234.510 C 111.926 234.106,112.766 233.776,112.902 233.776 C 113.037 233.776,113.148 233.350,113.148 232.830 C 113.148 230.763,114.105 230.873,114.501 232.985 M160.676 232.569 C 161.031 232.924,161.158 233.374,161.158 234.270 L 161.158 235.489 160.374 234.894 C 159.943 234.568,158.949 234.018,158.166 233.673 C 156.526 232.951,156.527 232.942,158.276 232.472 C 160.017 232.004,160.114 232.008,160.676 232.569 M61.701 233.468 C 63.002 234.295,63.295 234.741,62.536 234.741 C 62.299 234.741,61.566 234.182,60.908 233.500 C 59.644 232.190,59.689 232.189,61.701 233.468 M324.632 235.145 C 324.833 235.222,325.145 235.083,325.336 234.831 C 325.651 234.415,325.679 234.452,325.686 235.299 C 325.693 236.163,325.652 236.215,325.032 236.144 C 324.071 236.033,323.667 235.054,323.924 233.459 L 324.125 232.207 324.198 233.607 C 324.249 234.577,324.382 235.049,324.632 235.145 M290.228 234.453 C 290.226 236.040,289.914 237.336,289.371 238.009 C 289.017 238.446,288.998 238.358,289.108 236.791 C 289.348 233.371,290.231 231.527,290.228 234.453 M105.065 233.293 C 105.660 233.519,105.676 233.564,105.329 234.060 C 104.815 234.794,105.235 235.221,106.483 235.233 L 107.479 235.243 106.647 235.686 C 105.653 236.216,104.707 235.994,104.117 235.093 C 103.664 234.401,103.622 233.381,104.041 233.212 C 104.207 233.145,104.363 233.081,104.387 233.071 C 104.412 233.060,104.717 233.160,105.065 233.293 M185.404 236.460 L 185.404 239.362 184.988 238.438 C 184.328 236.973,184.453 232.607,185.135 233.289 C 185.303 233.458,185.404 234.646,185.404 236.460 M286.259 234.368 C 287.779 235.888,285.442 239.788,282.816 240.115 L 281.797 240.242 282.381 239.482 C 282.701 239.064,283.411 238.450,283.957 238.118 C 284.809 237.601,284.928 237.429,284.796 236.912 C 284.064 234.048,284.749 232.857,286.259 234.368 M157.057 235.109 C 157.057 235.290,155.683 237.924,155.362 238.359 C 154.965 238.898,155.286 237.803,155.981 236.248 C 156.445 235.210,157.057 234.563,157.057 235.109 M62.953 236.450 C 62.550 237.016,62.301 237.158,61.911 237.044 C 61.630 236.961,60.395 236.769,59.168 236.617 C 56.177 236.247,56.354 235.979,59.650 235.886 C 61.143 235.843,62.616 235.786,62.924 235.757 L 63.483 235.706 62.953 236.450 M172.275 236.978 C 173.310 237.676,174.189 238.973,174.175 239.782 C 174.165 240.371,174.135 240.354,173.690 239.511 C 173.429 239.017,172.619 238.162,171.891 237.612 C 171.163 237.063,170.567 236.571,170.567 236.521 C 170.567 236.236,171.574 236.506,172.275 236.978 M261.472 237.630 C 262.279 237.645,263.248 238.383,262.942 238.752 C 262.677 239.072,262.619 239.072,262.441 238.755 C 262.330 238.557,261.834 238.272,261.337 238.121 C 259.277 237.496,258.384 237.096,258.384 236.798 C 258.384 236.569,258.760 236.638,259.771 237.054 C 260.534 237.368,261.299 237.627,261.472 237.630 M268.551 239.264 C 269.156 240.048,269.806 241.251,270.044 242.030 C 270.795 244.486,271.252 243.750,270.668 241.025 C 270.261 239.128,270.562 239.021,271.136 240.858 C 271.627 242.431,271.835 245.093,271.493 245.435 C 271.294 245.634,270.796 244.820,268.844 241.114 C 266.854 237.332,266.801 236.997,268.551 239.264 M172.020 240.011 C 172.824 241.226,172.964 242.058,172.342 241.936 C 171.735 241.816,171.070 240.773,170.695 239.354 C 170.293 237.827,170.710 238.034,172.020 240.011 M118.128 239.883 C 117.649 241.030,116.891 241.471,115.682 241.306 L 114.717 241.174 115.922 240.911 C 116.915 240.695,117.229 240.490,117.711 239.745 C 118.417 238.654,118.615 238.719,118.128 239.883 M123.619 241.456 C 121.147 243.251,121.688 243.964,124.450 242.553 L 126.344 241.585 127.214 242.324 C 128.410 243.342,128.687 244.169,128.214 245.307 C 127.581 246.829,126.641 248.010,126.063 248.010 C 125.153 248.010,125.172 247.704,126.114 247.176 C 128.216 245.997,126.835 245.005,123.073 244.992 C 120.593 244.983,120.568 244.977,119.998 244.265 C 118.800 242.767,119.362 242.046,122.334 241.268 C 124.685 240.652,124.718 240.657,123.619 241.456 M254.824 241.483 C 254.113 242.076,250.952 243.313,250.726 243.086 C 250.283 242.644,253.288 241.010,254.524 241.021 L 255.368 241.029 254.824 241.483 M263.882 245.656 C 263.431 246.444,263.314 243.332,263.741 241.924 L 264.053 240.893 264.123 243.002 C 264.169 244.399,264.087 245.295,263.882 245.656 M116.526 242.555 C 118.403 242.696,119.383 244.691,120.052 249.737 L 120.218 250.990 119.518 250.499 C 119.133 250.229,117.876 249.569,116.726 249.033 C 114.278 247.893,113.746 247.207,113.999 245.520 C 114.114 244.752,114.006 244.117,113.560 242.931 L 112.968 241.358 114.083 241.907 C 114.697 242.208,115.796 242.500,116.526 242.555 M276.556 241.655 C 275.262 241.928,275.329 242.822,276.732 244.003 C 277.519 244.665,278.649 244.851,278.649 244.318 C 278.649 243.880,278.147 243.426,277.662 243.426 C 277.437 243.426,277.191 243.263,277.114 243.064 C 276.927 242.577,277.206 242.602,279.736 243.302 C 282.285 244.007,282.509 244.027,282.509 243.543 C 282.509 242.550,278.433 241.258,276.556 241.655 M149.698 241.978 C 150.313 242.242,149.679 242.242,148.854 241.978 C 148.369 241.823,148.346 241.784,148.733 241.778 C 148.999 241.774,149.433 241.864,149.698 241.978 M162.917 244.138 C 163.753 244.871,164.307 246.213,164.278 247.435 C 164.263 248.072,164.237 248.050,163.957 247.165 C 163.523 245.792,162.991 244.842,162.233 244.084 C 161.348 243.199,161.897 243.242,162.917 244.138 M171.047 245.476 C 171.059 246.626,171.553 247.768,172.038 247.768 C 174.179 247.768,175.765 250.416,175.131 252.934 C 174.319 256.160,171.625 252.834,170.655 247.407 C 170.300 245.425,170.389 243.961,170.821 244.645 C 170.943 244.837,171.044 245.211,171.047 245.476 M183.213 246.488 C 181.894 248.404,181.900 249.935,183.232 251.941 C 184.631 254.048,184.763 253.824,184.194 250.302 L 184.038 249.337 184.506 249.912 C 184.839 250.323,185.234 251.910,185.886 255.461 C 186.388 258.196,187.045 261.466,187.346 262.726 L 187.894 265.018 187.175 264.174 C 184.910 261.513,182.998 258.019,182.167 255.019 C 181.915 254.111,181.511 253.066,181.269 252.696 C 180.223 251.100,180.951 248.070,182.885 245.972 C 184.231 244.512,184.395 244.769,183.213 246.488 M271.094 248.727 C 271.233 249.906,271.647 250.673,271.658 249.773 C 271.666 249.116,272.555 247.286,272.866 247.286 C 273.292 247.286,272.904 248.658,271.987 250.395 L 271.173 251.936 270.791 251.022 C 270.333 249.924,269.715 246.821,269.743 245.757 C 269.773 244.609,270.899 247.085,271.094 248.727 M115.827 246.300 C 115.272 246.652,115.705 247.229,117.028 247.899 C 117.714 248.247,118.533 248.789,118.848 249.104 C 119.525 249.781,119.610 249.410,119.071 248.122 C 118.395 246.503,116.864 245.644,115.827 246.300 M217.993 248.673 C 217.367 255.667,215.629 260.401,212.411 263.883 L 210.950 265.464 211.136 263.346 C 211.238 262.181,211.646 259.529,212.042 257.453 C 212.439 255.378,212.889 252.944,213.042 252.046 C 213.195 251.147,213.521 250.170,213.765 249.874 C 214.202 249.347,214.204 249.359,213.860 250.521 C 212.832 254.001,214.364 253.069,216.404 248.975 C 217.832 246.108,218.230 246.033,217.993 248.673 M75.754 247.629 C 75.754 247.685,75.347 247.862,74.849 248.022 C 72.905 248.649,73.084 249.165,75.259 249.199 C 76.566 249.220,76.307 249.671,74.878 249.861 C 73.083 250.101,71.911 248.535,73.402 247.887 C 74.125 247.572,75.754 247.394,75.754 247.629 M122.988 247.844 C 124.025 248.154,124.121 248.483,123.181 248.503 C 122.904 248.509,122.271 248.659,121.773 248.836 L 120.869 249.159 120.869 248.343 C 120.869 247.402,121.228 247.317,122.988 247.844 M245.838 248.181 C 245.155 248.432,244.632 249.050,244.632 249.607 L 244.632 250.165 245.527 249.636 C 246.240 249.216,246.903 249.089,248.784 249.013 C 250.083 248.961,251.146 248.828,251.146 248.717 C 251.146 248.187,246.969 247.765,245.838 248.181 M196.259 250.333 C 196.696 251.000,196.726 251.670,196.336 252.059 C 196.116 252.280,195.902 252.075,195.403 251.162 C 195.047 250.512,194.501 249.567,194.190 249.063 L 193.623 248.146 194.759 248.962 C 195.384 249.411,196.059 250.027,196.259 250.333 M231.602 249.872 C 231.603 249.901,230.980 250.377,230.217 250.931 C 229.454 251.484,228.438 252.309,227.958 252.764 L 227.086 253.592 226.692 252.605 C 225.763 250.284,226.357 249.678,229.480 249.762 C 230.645 249.793,231.600 249.843,231.602 249.872 M250.428 250.347 C 250.434 251.011,250.856 251.653,253.016 254.283 C 253.580 254.970,254.041 255.685,254.041 255.872 C 254.041 256.525,254.503 256.206,254.726 255.398 C 255.184 253.739,254.337 252.422,251.558 250.468 L 250.422 249.668 250.428 250.347 M247.045 250.638 C 247.045 251.283,251.532 256.872,251.819 256.585 C 252.002 256.401,250.679 253.765,249.809 252.580 C 248.799 251.203,247.045 249.971,247.045 250.638 M102.893 250.908 C 102.558 251.449,100.738 252.138,99.095 252.344 C 96.929 252.616,96.747 252.494,98.587 252.005 C 99.364 251.799,100.597 251.421,101.327 251.166 C 102.902 250.617,103.092 250.585,102.893 250.908 M143.123 251.904 C 142.231 253.064,142.196 253.245,142.716 253.987 C 143.334 254.871,143.992 254.670,144.540 253.429 C 145.558 251.128,144.552 250.045,143.123 251.904 M305.652 254.946 C 305.062 257.056,304.572 255.533,305.099 253.229 C 305.285 252.415,305.515 251.586,305.609 251.387 C 305.913 250.749,305.951 253.879,305.652 254.946 M71.366 253.102 C 71.079 253.926,69.598 254.772,68.516 254.731 C 68.024 254.713,68.002 254.688,68.396 254.594 C 68.661 254.530,69.258 254.123,69.723 253.688 C 70.405 253.049,71.311 252.401,71.580 252.360 C 71.606 252.356,71.510 252.690,71.366 253.102 M117.491 253.943 C 117.491 254.021,117.274 254.362,117.008 254.699 C 116.501 255.344,116.350 255.063,116.776 254.266 C 117.007 253.834,117.491 253.615,117.491 253.943 M200.284 254.229 C 203.449 256.316,203.592 263.212,200.706 274.601 C 199.655 278.751,199.471 278.473,197.163 269.257 C 195.348 262.009,195.350 259.966,197.173 256.333 C 198.379 253.930,199.096 253.445,200.284 254.229 M76.406 255.641 C 76.198 255.848,76.180 258.921,76.383 259.450 C 76.586 259.979,77.374 259.927,77.675 259.364 C 78.461 257.897,77.365 254.682,76.406 255.641 M118.408 256.810 C 120.405 257.042,120.530 257.184,119.562 258.123 C 118.282 259.364,116.807 258.584,116.403 256.454 C 116.249 255.639,116.256 255.628,116.622 256.128 C 116.903 256.511,117.370 256.689,118.408 256.810 M312.907 257.168 C 312.907 257.804,313.019 257.912,313.932 258.157 C 316.234 258.774,316.641 258.993,317.057 259.840 L 317.468 260.676 317.479 259.892 C 317.500 258.485,315.170 256.454,313.534 256.454 C 313.000 256.454,312.907 256.560,312.907 257.168 M73.007 257.922 C 71.716 258.938,71.047 261.761,72.098 261.761 C 72.958 261.761,73.719 260.497,73.962 258.667 C 74.147 257.273,73.989 257.150,73.007 257.922 M329.071 258.556 C 329.071 260.070,329.991 261.625,330.941 261.716 C 332.069 261.825,332.019 260.817,330.813 259.090 C 329.654 257.432,329.071 257.253,329.071 258.556 M322.799 260.442 C 322.799 262.497,323.485 263.547,324.629 263.241 C 325.641 262.971,325.609 262.454,324.499 261.172 C 323.962 260.551,323.522 259.887,323.522 259.696 C 323.522 259.505,323.359 259.349,323.160 259.349 C 322.892 259.349,322.799 259.631,322.799 260.442 M176.207 262.302 C 177.331 263.674,178.544 265.216,179.765 266.828 C 180.319 267.557,182.475 269.891,184.556 272.014 C 188.555 276.093,189.782 277.807,190.981 280.991 C 191.677 282.840,193.081 288.429,192.949 288.824 C 192.784 289.321,189.013 285.277,186.907 282.345 C 185.750 280.734,184.000 278.541,183.018 277.472 C 179.800 273.967,176.791 269.139,175.631 265.621 C 175.084 263.963,174.372 262.130,174.049 261.550 C 173.726 260.969,173.462 260.451,173.462 260.399 C 173.462 260.038,175.521 261.466,176.207 262.302 M213.522 277.081 C 212.587 279.702,211.821 281.942,211.821 282.059 C 211.821 282.175,211.129 283.492,210.282 284.984 C 209.436 286.475,208.136 288.890,207.393 290.350 C 206.613 291.883,206.091 292.698,206.157 292.280 C 206.220 291.882,206.487 289.873,206.750 287.817 C 207.622 281.003,208.174 279.684,211.869 275.587 C 213.043 274.285,214.245 272.869,214.541 272.438 C 215.520 271.013,215.253 272.233,213.522 277.081 " stroke="none" fill="#000000" fill-rule="evenodd"></path></g></svg>